<?xml version="1.0" encoding="utf-8" standalone="no"?>
<!DOCTYPE svg PUBLIC "-//W3C//DTD SVG 1.1//EN"
  "http://www.w3.org/Graphics/SVG/1.1/DTD/svg11.dtd">
<svg xmlns:xlink="http://www.w3.org/1999/xlink" width="648pt" height="576pt" viewBox="0 0 648 576" xmlns="http://www.w3.org/2000/svg" version="1.1">
 <metadata>
  <rdf:RDF xmlns:dc="http://purl.org/dc/elements/1.1/" xmlns:cc="http://creativecommons.org/ns#" xmlns:rdf="http://www.w3.org/1999/02/22-rdf-syntax-ns#">
   <cc:Work>
    <dc:type rdf:resource="http://purl.org/dc/dcmitype/StillImage"/>
    <dc:date>2026-04-18T19:59:17.404906</dc:date>
    <dc:format>image/svg+xml</dc:format>
    <dc:creator>
     <cc:Agent>
      <dc:title>Matplotlib v3.10.8, https://matplotlib.org/</dc:title>
     </cc:Agent>
    </dc:creator>
   </cc:Work>
  </rdf:RDF>
 </metadata>
 <defs>
  <style type="text/css">*{stroke-linejoin: round; stroke-linecap: butt}</style>
 </defs>
 <g id="figure_1">
  <g id="patch_1">
   <path d="M 0 576 
L 648 576 
L 648 0 
L 0 0 
z
" style="fill: #ffffff"/>
  </g>
  <g id="axes_1">
   <g id="patch_2">
    <path d="M 47.961178 186.626427 
L 644.99976 186.626427 
L 644.99976 18.118365 
L 47.961178 18.118365 
z
" style="fill: #ffffff"/>
   </g>
   <g id="matplotlib.axis_1">
    <g id="xtick_1">
     <g id="line2d_1">
      <defs>
       <path id="m8e4aed5a9e" d="M 0 0 
L 0 3.5 
" style="stroke: #000000; stroke-width: 0.8"/>
      </defs>
      <g>
       <use xlink:href="#m8e4aed5a9e" x="75.099295" y="186.626427" style="stroke: #000000; stroke-width: 0.8"/>
      </g>
     </g>
    </g>
    <g id="xtick_2">
     <g id="line2d_2">
      <g>
       <use xlink:href="#m8e4aed5a9e" x="144.684211" y="186.626427" style="stroke: #000000; stroke-width: 0.8"/>
      </g>
     </g>
    </g>
    <g id="xtick_3">
     <g id="line2d_3">
      <g>
       <use xlink:href="#m8e4aed5a9e" x="214.269128" y="186.626427" style="stroke: #000000; stroke-width: 0.8"/>
      </g>
     </g>
    </g>
    <g id="xtick_4">
     <g id="line2d_4">
      <g>
       <use xlink:href="#m8e4aed5a9e" x="283.854044" y="186.626427" style="stroke: #000000; stroke-width: 0.8"/>
      </g>
     </g>
    </g>
    <g id="xtick_5">
     <g id="line2d_5">
      <g>
       <use xlink:href="#m8e4aed5a9e" x="353.43896" y="186.626427" style="stroke: #000000; stroke-width: 0.8"/>
      </g>
     </g>
    </g>
    <g id="xtick_6">
     <g id="line2d_6">
      <g>
       <use xlink:href="#m8e4aed5a9e" x="423.023877" y="186.626427" style="stroke: #000000; stroke-width: 0.8"/>
      </g>
     </g>
    </g>
    <g id="xtick_7">
     <g id="line2d_7">
      <g>
       <use xlink:href="#m8e4aed5a9e" x="492.608793" y="186.626427" style="stroke: #000000; stroke-width: 0.8"/>
      </g>
     </g>
    </g>
    <g id="xtick_8">
     <g id="line2d_8">
      <g>
       <use xlink:href="#m8e4aed5a9e" x="562.19371" y="186.626427" style="stroke: #000000; stroke-width: 0.8"/>
      </g>
     </g>
    </g>
    <g id="xtick_9">
     <g id="line2d_9">
      <g>
       <use xlink:href="#m8e4aed5a9e" x="631.778626" y="186.626427" style="stroke: #000000; stroke-width: 0.8"/>
      </g>
     </g>
    </g>
   </g>
   <g id="matplotlib.axis_2">
    <g id="ytick_1">
     <g id="line2d_10">
      <defs>
       <path id="m298b946821" d="M 0 0 
L -3.5 0 
" style="stroke: #000000; stroke-width: 0.8"/>
      </defs>
      <g>
       <use xlink:href="#m298b946821" x="47.961178" y="168.132452" style="stroke: #000000; stroke-width: 0.8"/>
      </g>
     </g>
     <g id="text_1">
      <!-- −0.6 -->
      <g transform="translate(16.678365 171.931671) scale(0.1 -0.1)">
       <defs>
        <path id="DejaVuSans-2212" d="M 678 2272 
L 4684 2272 
L 4684 1741 
L 678 1741 
L 678 2272 
z
" transform="scale(0.015625)"/>
        <path id="DejaVuSans-30" d="M 2034 4250 
Q 1547 4250 1301 3770 
Q 1056 3291 1056 2328 
Q 1056 1369 1301 889 
Q 1547 409 2034 409 
Q 2525 409 2770 889 
Q 3016 1369 3016 2328 
Q 3016 3291 2770 3770 
Q 2525 4250 2034 4250 
z
M 2034 4750 
Q 2819 4750 3233 4129 
Q 3647 3509 3647 2328 
Q 3647 1150 3233 529 
Q 2819 -91 2034 -91 
Q 1250 -91 836 529 
Q 422 1150 422 2328 
Q 422 3509 836 4129 
Q 1250 4750 2034 4750 
z
" transform="scale(0.015625)"/>
        <path id="DejaVuSans-2e" d="M 684 794 
L 1344 794 
L 1344 0 
L 684 0 
L 684 794 
z
" transform="scale(0.015625)"/>
        <path id="DejaVuSans-36" d="M 2113 2584 
Q 1688 2584 1439 2293 
Q 1191 2003 1191 1497 
Q 1191 994 1439 701 
Q 1688 409 2113 409 
Q 2538 409 2786 701 
Q 3034 994 3034 1497 
Q 3034 2003 2786 2293 
Q 2538 2584 2113 2584 
z
M 3366 4563 
L 3366 3988 
Q 3128 4100 2886 4159 
Q 2644 4219 2406 4219 
Q 1781 4219 1451 3797 
Q 1122 3375 1075 2522 
Q 1259 2794 1537 2939 
Q 1816 3084 2150 3084 
Q 2853 3084 3261 2657 
Q 3669 2231 3669 1497 
Q 3669 778 3244 343 
Q 2819 -91 2113 -91 
Q 1303 -91 875 529 
Q 447 1150 447 2328 
Q 447 3434 972 4092 
Q 1497 4750 2381 4750 
Q 2619 4750 2861 4703 
Q 3103 4656 3366 4563 
z
" transform="scale(0.015625)"/>
       </defs>
       <use xlink:href="#DejaVuSans-2212"/>
       <use xlink:href="#DejaVuSans-30" transform="translate(83.789062 0)"/>
       <use xlink:href="#DejaVuSans-2e" transform="translate(147.412109 0)"/>
       <use xlink:href="#DejaVuSans-36" transform="translate(179.199219 0)"/>
      </g>
     </g>
    </g>
    <g id="ytick_2">
     <g id="line2d_11">
      <g>
       <use xlink:href="#m298b946821" x="47.961178" y="145.595973" style="stroke: #000000; stroke-width: 0.8"/>
      </g>
     </g>
     <g id="text_2">
      <!-- −0.4 -->
      <g transform="translate(16.678365 149.395191) scale(0.1 -0.1)">
       <defs>
        <path id="DejaVuSans-34" d="M 2419 4116 
L 825 1625 
L 2419 1625 
L 2419 4116 
z
M 2253 4666 
L 3047 4666 
L 3047 1625 
L 3713 1625 
L 3713 1100 
L 3047 1100 
L 3047 0 
L 2419 0 
L 2419 1100 
L 313 1100 
L 313 1709 
L 2253 4666 
z
" transform="scale(0.015625)"/>
       </defs>
       <use xlink:href="#DejaVuSans-2212"/>
       <use xlink:href="#DejaVuSans-30" transform="translate(83.789062 0)"/>
       <use xlink:href="#DejaVuSans-2e" transform="translate(147.412109 0)"/>
       <use xlink:href="#DejaVuSans-34" transform="translate(179.199219 0)"/>
      </g>
     </g>
    </g>
    <g id="ytick_3">
     <g id="line2d_12">
      <g>
       <use xlink:href="#m298b946821" x="47.961178" y="123.059493" style="stroke: #000000; stroke-width: 0.8"/>
      </g>
     </g>
     <g id="text_3">
      <!-- −0.2 -->
      <g transform="translate(16.678365 126.858712) scale(0.1 -0.1)">
       <defs>
        <path id="DejaVuSans-32" d="M 1228 531 
L 3431 531 
L 3431 0 
L 469 0 
L 469 531 
Q 828 903 1448 1529 
Q 2069 2156 2228 2338 
Q 2531 2678 2651 2914 
Q 2772 3150 2772 3378 
Q 2772 3750 2511 3984 
Q 2250 4219 1831 4219 
Q 1534 4219 1204 4116 
Q 875 4013 500 3803 
L 500 4441 
Q 881 4594 1212 4672 
Q 1544 4750 1819 4750 
Q 2544 4750 2975 4387 
Q 3406 4025 3406 3419 
Q 3406 3131 3298 2873 
Q 3191 2616 2906 2266 
Q 2828 2175 2409 1742 
Q 1991 1309 1228 531 
z
" transform="scale(0.015625)"/>
       </defs>
       <use xlink:href="#DejaVuSans-2212"/>
       <use xlink:href="#DejaVuSans-30" transform="translate(83.789062 0)"/>
       <use xlink:href="#DejaVuSans-2e" transform="translate(147.412109 0)"/>
       <use xlink:href="#DejaVuSans-32" transform="translate(179.199219 0)"/>
      </g>
     </g>
    </g>
    <g id="ytick_4">
     <g id="line2d_13">
      <g>
       <use xlink:href="#m298b946821" x="47.961178" y="100.523014" style="stroke: #000000; stroke-width: 0.8"/>
      </g>
     </g>
     <g id="text_4">
      <!-- 0.0 -->
      <g transform="translate(25.058053 104.322232) scale(0.1 -0.1)">
       <use xlink:href="#DejaVuSans-30"/>
       <use xlink:href="#DejaVuSans-2e" transform="translate(63.623047 0)"/>
       <use xlink:href="#DejaVuSans-30" transform="translate(95.410156 0)"/>
      </g>
     </g>
    </g>
    <g id="ytick_5">
     <g id="line2d_14">
      <g>
       <use xlink:href="#m298b946821" x="47.961178" y="77.986534" style="stroke: #000000; stroke-width: 0.8"/>
      </g>
     </g>
     <g id="text_5">
      <!-- 0.2 -->
      <g transform="translate(25.058053 81.785753) scale(0.1 -0.1)">
       <use xlink:href="#DejaVuSans-30"/>
       <use xlink:href="#DejaVuSans-2e" transform="translate(63.623047 0)"/>
       <use xlink:href="#DejaVuSans-32" transform="translate(95.410156 0)"/>
      </g>
     </g>
    </g>
    <g id="ytick_6">
     <g id="line2d_15">
      <g>
       <use xlink:href="#m298b946821" x="47.961178" y="55.450054" style="stroke: #000000; stroke-width: 0.8"/>
      </g>
     </g>
     <g id="text_6">
      <!-- 0.4 -->
      <g transform="translate(25.058053 59.249273) scale(0.1 -0.1)">
       <use xlink:href="#DejaVuSans-30"/>
       <use xlink:href="#DejaVuSans-2e" transform="translate(63.623047 0)"/>
       <use xlink:href="#DejaVuSans-34" transform="translate(95.410156 0)"/>
      </g>
     </g>
    </g>
    <g id="ytick_7">
     <g id="line2d_16">
      <g>
       <use xlink:href="#m298b946821" x="47.961178" y="32.913575" style="stroke: #000000; stroke-width: 0.8"/>
      </g>
     </g>
     <g id="text_7">
      <!-- 0.6 -->
      <g transform="translate(25.058053 36.712794) scale(0.1 -0.1)">
       <use xlink:href="#DejaVuSans-30"/>
       <use xlink:href="#DejaVuSans-2e" transform="translate(63.623047 0)"/>
       <use xlink:href="#DejaVuSans-36" transform="translate(95.410156 0)"/>
      </g>
     </g>
    </g>
    <g id="text_8">
     <!-- torque -->
     <g transform="translate(10.598678 118.779427) rotate(-90) scale(0.1 -0.1)">
      <defs>
       <path id="DejaVuSans-74" d="M 1172 4494 
L 1172 3500 
L 2356 3500 
L 2356 3053 
L 1172 3053 
L 1172 1153 
Q 1172 725 1289 603 
Q 1406 481 1766 481 
L 2356 481 
L 2356 0 
L 1766 0 
Q 1100 0 847 248 
Q 594 497 594 1153 
L 594 3053 
L 172 3053 
L 172 3500 
L 594 3500 
L 594 4494 
L 1172 4494 
z
" transform="scale(0.015625)"/>
       <path id="DejaVuSans-6f" d="M 1959 3097 
Q 1497 3097 1228 2736 
Q 959 2375 959 1747 
Q 959 1119 1226 758 
Q 1494 397 1959 397 
Q 2419 397 2687 759 
Q 2956 1122 2956 1747 
Q 2956 2369 2687 2733 
Q 2419 3097 1959 3097 
z
M 1959 3584 
Q 2709 3584 3137 3096 
Q 3566 2609 3566 1747 
Q 3566 888 3137 398 
Q 2709 -91 1959 -91 
Q 1206 -91 779 398 
Q 353 888 353 1747 
Q 353 2609 779 3096 
Q 1206 3584 1959 3584 
z
" transform="scale(0.015625)"/>
       <path id="DejaVuSans-72" d="M 2631 2963 
Q 2534 3019 2420 3045 
Q 2306 3072 2169 3072 
Q 1681 3072 1420 2755 
Q 1159 2438 1159 1844 
L 1159 0 
L 581 0 
L 581 3500 
L 1159 3500 
L 1159 2956 
Q 1341 3275 1631 3429 
Q 1922 3584 2338 3584 
Q 2397 3584 2469 3576 
Q 2541 3569 2628 3553 
L 2631 2963 
z
" transform="scale(0.015625)"/>
       <path id="DejaVuSans-71" d="M 947 1747 
Q 947 1113 1208 752 
Q 1469 391 1925 391 
Q 2381 391 2643 752 
Q 2906 1113 2906 1747 
Q 2906 2381 2643 2742 
Q 2381 3103 1925 3103 
Q 1469 3103 1208 2742 
Q 947 2381 947 1747 
z
M 2906 525 
Q 2725 213 2448 61 
Q 2172 -91 1784 -91 
Q 1150 -91 751 415 
Q 353 922 353 1747 
Q 353 2572 751 3078 
Q 1150 3584 1784 3584 
Q 2172 3584 2448 3432 
Q 2725 3281 2906 2969 
L 2906 3500 
L 3481 3500 
L 3481 -1331 
L 2906 -1331 
L 2906 525 
z
" transform="scale(0.015625)"/>
       <path id="DejaVuSans-75" d="M 544 1381 
L 544 3500 
L 1119 3500 
L 1119 1403 
Q 1119 906 1312 657 
Q 1506 409 1894 409 
Q 2359 409 2629 706 
Q 2900 1003 2900 1516 
L 2900 3500 
L 3475 3500 
L 3475 0 
L 2900 0 
L 2900 538 
Q 2691 219 2414 64 
Q 2138 -91 1772 -91 
Q 1169 -91 856 284 
Q 544 659 544 1381 
z
M 1991 3584 
L 1991 3584 
z
" transform="scale(0.015625)"/>
       <path id="DejaVuSans-65" d="M 3597 1894 
L 3597 1613 
L 953 1613 
Q 991 1019 1311 708 
Q 1631 397 2203 397 
Q 2534 397 2845 478 
Q 3156 559 3463 722 
L 3463 178 
Q 3153 47 2828 -22 
Q 2503 -91 2169 -91 
Q 1331 -91 842 396 
Q 353 884 353 1716 
Q 353 2575 817 3079 
Q 1281 3584 2069 3584 
Q 2775 3584 3186 3129 
Q 3597 2675 3597 1894 
z
M 3022 2063 
Q 3016 2534 2758 2815 
Q 2500 3097 2075 3097 
Q 1594 3097 1305 2825 
Q 1016 2553 972 2059 
L 3022 2063 
z
" transform="scale(0.015625)"/>
      </defs>
      <use xlink:href="#DejaVuSans-74"/>
      <use xlink:href="#DejaVuSans-6f" transform="translate(39.208984 0)"/>
      <use xlink:href="#DejaVuSans-72" transform="translate(100.390625 0)"/>
      <use xlink:href="#DejaVuSans-71" transform="translate(139.753906 0)"/>
      <use xlink:href="#DejaVuSans-75" transform="translate(203.230469 0)"/>
      <use xlink:href="#DejaVuSans-65" transform="translate(266.609375 0)"/>
     </g>
    </g>
   </g>
   <g id="line2d_17">
    <path d="M 75.099295 78.993092 
L 89.016278 71.665006 
L 102.933261 64.5214 
L 116.850245 57.679565 
L 130.767228 51.252874 
L 144.684211 45.348983 
L 158.601195 40.068139 
L 172.518178 35.501581 
L 186.435161 31.730099 
L 200.352144 28.822738 
L 214.269128 26.835693 
L 228.186111 25.811395 
L 242.103094 25.777822 
L 256.020077 26.74802 
L 269.937061 28.719861 
L 283.854044 31.676042 
L 297.771027 35.584311 
L 311.688011 40.397927 
L 325.604994 46.05635 
L 339.521977 52.486138 
L 353.43896 59.602051 
L 367.355944 67.308332 
L 381.272927 75.500161 
L 395.18991 84.065236 
L 409.106893 92.885486 
L 423.023877 101.838862 
L 436.94086 110.801195 
L 450.857843 119.648087 
L 464.774827 128.256805 
L 478.69181 136.508153 
L 492.608793 144.288281 
L 506.525776 151.49042 
L 520.44276 158.016502 
L 534.359743 163.77865 
L 548.276726 168.700502 
L 562.19371 172.718368 
L 576.110693 175.782178 
L 590.027676 177.85623 
L 603.944659 178.919707 
L 617.861643 178.966969 
" clip-path="url(#p696f0e4099)" style="fill: none; stroke: #0f766e; stroke-width: 2; stroke-linecap: square"/>
   </g>
   <g id="patch_3">
    <path d="M 47.961178 186.626427 
L 47.961178 18.118365 
" style="fill: none; stroke: #000000; stroke-width: 0.8; stroke-linejoin: miter; stroke-linecap: square"/>
   </g>
   <g id="patch_4">
    <path d="M 644.99976 186.626427 
L 644.99976 18.118365 
" style="fill: none; stroke: #000000; stroke-width: 0.8; stroke-linejoin: miter; stroke-linecap: square"/>
   </g>
   <g id="patch_5">
    <path d="M 47.961178 186.626427 
L 644.99976 186.626427 
" style="fill: none; stroke: #000000; stroke-width: 0.8; stroke-linejoin: miter; stroke-linecap: square"/>
   </g>
   <g id="patch_6">
    <path d="M 47.961178 18.118365 
L 644.99976 18.118365 
" style="fill: none; stroke: #000000; stroke-width: 0.8; stroke-linejoin: miter; stroke-linecap: square"/>
   </g>
   <g id="text_9">
    <!-- Continuous nonlinear estimation -->
    <g transform="translate(248.681406 12.118365) scale(0.12 -0.12)">
     <defs>
      <path id="DejaVuSans-43" d="M 4122 4306 
L 4122 3641 
Q 3803 3938 3442 4084 
Q 3081 4231 2675 4231 
Q 1875 4231 1450 3742 
Q 1025 3253 1025 2328 
Q 1025 1406 1450 917 
Q 1875 428 2675 428 
Q 3081 428 3442 575 
Q 3803 722 4122 1019 
L 4122 359 
Q 3791 134 3420 21 
Q 3050 -91 2638 -91 
Q 1578 -91 968 557 
Q 359 1206 359 2328 
Q 359 3453 968 4101 
Q 1578 4750 2638 4750 
Q 3056 4750 3426 4639 
Q 3797 4528 4122 4306 
z
" transform="scale(0.015625)"/>
      <path id="DejaVuSans-6e" d="M 3513 2113 
L 3513 0 
L 2938 0 
L 2938 2094 
Q 2938 2591 2744 2837 
Q 2550 3084 2163 3084 
Q 1697 3084 1428 2787 
Q 1159 2491 1159 1978 
L 1159 0 
L 581 0 
L 581 3500 
L 1159 3500 
L 1159 2956 
Q 1366 3272 1645 3428 
Q 1925 3584 2291 3584 
Q 2894 3584 3203 3211 
Q 3513 2838 3513 2113 
z
" transform="scale(0.015625)"/>
      <path id="DejaVuSans-69" d="M 603 3500 
L 1178 3500 
L 1178 0 
L 603 0 
L 603 3500 
z
M 603 4863 
L 1178 4863 
L 1178 4134 
L 603 4134 
L 603 4863 
z
" transform="scale(0.015625)"/>
      <path id="DejaVuSans-73" d="M 2834 3397 
L 2834 2853 
Q 2591 2978 2328 3040 
Q 2066 3103 1784 3103 
Q 1356 3103 1142 2972 
Q 928 2841 928 2578 
Q 928 2378 1081 2264 
Q 1234 2150 1697 2047 
L 1894 2003 
Q 2506 1872 2764 1633 
Q 3022 1394 3022 966 
Q 3022 478 2636 193 
Q 2250 -91 1575 -91 
Q 1294 -91 989 -36 
Q 684 19 347 128 
L 347 722 
Q 666 556 975 473 
Q 1284 391 1588 391 
Q 1994 391 2212 530 
Q 2431 669 2431 922 
Q 2431 1156 2273 1281 
Q 2116 1406 1581 1522 
L 1381 1569 
Q 847 1681 609 1914 
Q 372 2147 372 2553 
Q 372 3047 722 3315 
Q 1072 3584 1716 3584 
Q 2034 3584 2315 3537 
Q 2597 3491 2834 3397 
z
" transform="scale(0.015625)"/>
      <path id="DejaVuSans-20" transform="scale(0.015625)"/>
      <path id="DejaVuSans-6c" d="M 603 4863 
L 1178 4863 
L 1178 0 
L 603 0 
L 603 4863 
z
" transform="scale(0.015625)"/>
      <path id="DejaVuSans-61" d="M 2194 1759 
Q 1497 1759 1228 1600 
Q 959 1441 959 1056 
Q 959 750 1161 570 
Q 1363 391 1709 391 
Q 2188 391 2477 730 
Q 2766 1069 2766 1631 
L 2766 1759 
L 2194 1759 
z
M 3341 1997 
L 3341 0 
L 2766 0 
L 2766 531 
Q 2569 213 2275 61 
Q 1981 -91 1556 -91 
Q 1019 -91 701 211 
Q 384 513 384 1019 
Q 384 1609 779 1909 
Q 1175 2209 1959 2209 
L 2766 2209 
L 2766 2266 
Q 2766 2663 2505 2880 
Q 2244 3097 1772 3097 
Q 1472 3097 1187 3025 
Q 903 2953 641 2809 
L 641 3341 
Q 956 3463 1253 3523 
Q 1550 3584 1831 3584 
Q 2591 3584 2966 3190 
Q 3341 2797 3341 1997 
z
" transform="scale(0.015625)"/>
      <path id="DejaVuSans-6d" d="M 3328 2828 
Q 3544 3216 3844 3400 
Q 4144 3584 4550 3584 
Q 5097 3584 5394 3201 
Q 5691 2819 5691 2113 
L 5691 0 
L 5113 0 
L 5113 2094 
Q 5113 2597 4934 2840 
Q 4756 3084 4391 3084 
Q 3944 3084 3684 2787 
Q 3425 2491 3425 1978 
L 3425 0 
L 2847 0 
L 2847 2094 
Q 2847 2600 2669 2842 
Q 2491 3084 2119 3084 
Q 1678 3084 1418 2786 
Q 1159 2488 1159 1978 
L 1159 0 
L 581 0 
L 581 3500 
L 1159 3500 
L 1159 2956 
Q 1356 3278 1631 3431 
Q 1906 3584 2284 3584 
Q 2666 3584 2933 3390 
Q 3200 3197 3328 2828 
z
" transform="scale(0.015625)"/>
     </defs>
     <use xlink:href="#DejaVuSans-43"/>
     <use xlink:href="#DejaVuSans-6f" transform="translate(69.824219 0)"/>
     <use xlink:href="#DejaVuSans-6e" transform="translate(131.005859 0)"/>
     <use xlink:href="#DejaVuSans-74" transform="translate(194.384766 0)"/>
     <use xlink:href="#DejaVuSans-69" transform="translate(233.59375 0)"/>
     <use xlink:href="#DejaVuSans-6e" transform="translate(261.376953 0)"/>
     <use xlink:href="#DejaVuSans-75" transform="translate(324.755859 0)"/>
     <use xlink:href="#DejaVuSans-6f" transform="translate(388.134766 0)"/>
     <use xlink:href="#DejaVuSans-75" transform="translate(449.316406 0)"/>
     <use xlink:href="#DejaVuSans-73" transform="translate(512.695312 0)"/>
     <use xlink:href="#DejaVuSans-20" transform="translate(564.794922 0)"/>
     <use xlink:href="#DejaVuSans-6e" transform="translate(596.582031 0)"/>
     <use xlink:href="#DejaVuSans-6f" transform="translate(659.960938 0)"/>
     <use xlink:href="#DejaVuSans-6e" transform="translate(721.142578 0)"/>
     <use xlink:href="#DejaVuSans-6c" transform="translate(784.521484 0)"/>
     <use xlink:href="#DejaVuSans-69" transform="translate(812.304688 0)"/>
     <use xlink:href="#DejaVuSans-6e" transform="translate(840.087891 0)"/>
     <use xlink:href="#DejaVuSans-65" transform="translate(903.466797 0)"/>
     <use xlink:href="#DejaVuSans-61" transform="translate(964.990234 0)"/>
     <use xlink:href="#DejaVuSans-72" transform="translate(1026.269531 0)"/>
     <use xlink:href="#DejaVuSans-20" transform="translate(1067.382812 0)"/>
     <use xlink:href="#DejaVuSans-65" transform="translate(1099.169922 0)"/>
     <use xlink:href="#DejaVuSans-73" transform="translate(1160.693359 0)"/>
     <use xlink:href="#DejaVuSans-74" transform="translate(1212.792969 0)"/>
     <use xlink:href="#DejaVuSans-69" transform="translate(1252.001953 0)"/>
     <use xlink:href="#DejaVuSans-6d" transform="translate(1279.785156 0)"/>
     <use xlink:href="#DejaVuSans-61" transform="translate(1377.197266 0)"/>
     <use xlink:href="#DejaVuSans-74" transform="translate(1438.476562 0)"/>
     <use xlink:href="#DejaVuSans-69" transform="translate(1477.685547 0)"/>
     <use xlink:href="#DejaVuSans-6f" transform="translate(1505.46875 0)"/>
     <use xlink:href="#DejaVuSans-6e" transform="translate(1566.650391 0)"/>
    </g>
   </g>
  </g>
  <g id="axes_2">
   <g id="patch_7">
    <path d="M 47.961178 364.634968 
L 644.99976 364.634968 
L 644.99976 196.126907 
L 47.961178 196.126907 
z
" style="fill: #ffffff"/>
   </g>
   <g id="PathCollection_1">
    <defs>
     <path id="m99d594dd77" d="M 0 1.870829 
C 0.49615 1.870829 0.972045 1.673706 1.322876 1.322876 
C 1.673706 0.972045 1.870829 0.49615 1.870829 0 
C 1.870829 -0.49615 1.673706 -0.972045 1.322876 -1.322876 
C 0.972045 -1.673706 0.49615 -1.870829 0 -1.870829 
C -0.49615 -1.870829 -0.972045 -1.673706 -1.322876 -1.322876 
C -1.673706 -0.972045 -1.870829 -0.49615 -1.870829 0 
C -1.870829 0.49615 -1.673706 0.972045 -1.322876 1.322876 
C -0.972045 1.673706 -0.49615 1.870829 0 1.870829 
z
" style="stroke: #d97706; stroke-opacity: 0.65"/>
    </defs>
    <g clip-path="url(#pec1d9f4348)">
     <use xlink:href="#m99d594dd77" x="75.099295" y="203.786364" style="fill: #d97706; fill-opacity: 0.65; stroke: #d97706; stroke-opacity: 0.65"/>
     <use xlink:href="#m99d594dd77" x="89.016278" y="236.424955" style="fill: #d97706; fill-opacity: 0.65; stroke: #d97706; stroke-opacity: 0.65"/>
     <use xlink:href="#m99d594dd77" x="102.933261" y="227.986005" style="fill: #d97706; fill-opacity: 0.65; stroke: #d97706; stroke-opacity: 0.65"/>
     <use xlink:href="#m99d594dd77" x="116.850245" y="239.322192" style="fill: #d97706; fill-opacity: 0.65; stroke: #d97706; stroke-opacity: 0.65"/>
     <use xlink:href="#m99d594dd77" x="130.767228" y="250.633766" style="fill: #d97706; fill-opacity: 0.65; stroke: #d97706; stroke-opacity: 0.65"/>
     <use xlink:href="#m99d594dd77" x="144.684211" y="216.713545" style="fill: #d97706; fill-opacity: 0.65; stroke: #d97706; stroke-opacity: 0.65"/>
     <use xlink:href="#m99d594dd77" x="158.601195" y="227.159065" style="fill: #d97706; fill-opacity: 0.65; stroke: #d97706; stroke-opacity: 0.65"/>
     <use xlink:href="#m99d594dd77" x="172.518178" y="225.348792" style="fill: #d97706; fill-opacity: 0.65; stroke: #d97706; stroke-opacity: 0.65"/>
     <use xlink:href="#m99d594dd77" x="186.435161" y="224.599308" style="fill: #d97706; fill-opacity: 0.65; stroke: #d97706; stroke-opacity: 0.65"/>
     <use xlink:href="#m99d594dd77" x="200.352144" y="234.601662" style="fill: #d97706; fill-opacity: 0.65; stroke: #d97706; stroke-opacity: 0.65"/>
     <use xlink:href="#m99d594dd77" x="214.269128" y="233.150447" style="fill: #d97706; fill-opacity: 0.65; stroke: #d97706; stroke-opacity: 0.65"/>
     <use xlink:href="#m99d594dd77" x="228.186111" y="239.028273" style="fill: #d97706; fill-opacity: 0.65; stroke: #d97706; stroke-opacity: 0.65"/>
     <use xlink:href="#m99d594dd77" x="242.103094" y="223.285003" style="fill: #d97706; fill-opacity: 0.65; stroke: #d97706; stroke-opacity: 0.65"/>
     <use xlink:href="#m99d594dd77" x="256.020077" y="243.312144" style="fill: #d97706; fill-opacity: 0.65; stroke: #d97706; stroke-opacity: 0.65"/>
     <use xlink:href="#m99d594dd77" x="269.937061" y="235.71564" style="fill: #d97706; fill-opacity: 0.65; stroke: #d97706; stroke-opacity: 0.65"/>
     <use xlink:href="#m99d594dd77" x="283.854044" y="252.075237" style="fill: #d97706; fill-opacity: 0.65; stroke: #d97706; stroke-opacity: 0.65"/>
     <use xlink:href="#m99d594dd77" x="297.771027" y="253.698606" style="fill: #d97706; fill-opacity: 0.65; stroke: #d97706; stroke-opacity: 0.65"/>
     <use xlink:href="#m99d594dd77" x="311.688011" y="247.148679" style="fill: #d97706; fill-opacity: 0.65; stroke: #d97706; stroke-opacity: 0.65"/>
     <use xlink:href="#m99d594dd77" x="325.604994" y="247.694512" style="fill: #d97706; fill-opacity: 0.65; stroke: #d97706; stroke-opacity: 0.65"/>
     <use xlink:href="#m99d594dd77" x="339.521977" y="254.547122" style="fill: #d97706; fill-opacity: 0.65; stroke: #d97706; stroke-opacity: 0.65"/>
     <use xlink:href="#m99d594dd77" x="353.43896" y="255.948652" style="fill: #d97706; fill-opacity: 0.65; stroke: #d97706; stroke-opacity: 0.65"/>
     <use xlink:href="#m99d594dd77" x="367.355944" y="254.264997" style="fill: #d97706; fill-opacity: 0.65; stroke: #d97706; stroke-opacity: 0.65"/>
     <use xlink:href="#m99d594dd77" x="381.272927" y="251.434312" style="fill: #d97706; fill-opacity: 0.65; stroke: #d97706; stroke-opacity: 0.65"/>
     <use xlink:href="#m99d594dd77" x="395.18991" y="265.915066" style="fill: #d97706; fill-opacity: 0.65; stroke: #d97706; stroke-opacity: 0.65"/>
     <use xlink:href="#m99d594dd77" x="409.106893" y="244.90541" style="fill: #d97706; fill-opacity: 0.65; stroke: #d97706; stroke-opacity: 0.65"/>
     <use xlink:href="#m99d594dd77" x="423.023877" y="241.433687" style="fill: #d97706; fill-opacity: 0.65; stroke: #d97706; stroke-opacity: 0.65"/>
     <use xlink:href="#m99d594dd77" x="436.94086" y="222.576392" style="fill: #d97706; fill-opacity: 0.65; stroke: #d97706; stroke-opacity: 0.65"/>
     <use xlink:href="#m99d594dd77" x="450.857843" y="263.704213" style="fill: #d97706; fill-opacity: 0.65; stroke: #d97706; stroke-opacity: 0.65"/>
     <use xlink:href="#m99d594dd77" x="464.774827" y="258.490177" style="fill: #d97706; fill-opacity: 0.65; stroke: #d97706; stroke-opacity: 0.65"/>
     <use xlink:href="#m99d594dd77" x="478.69181" y="274.572841" style="fill: #d97706; fill-opacity: 0.65; stroke: #d97706; stroke-opacity: 0.65"/>
     <use xlink:href="#m99d594dd77" x="492.608793" y="279.582767" style="fill: #d97706; fill-opacity: 0.65; stroke: #d97706; stroke-opacity: 0.65"/>
     <use xlink:href="#m99d594dd77" x="506.525776" y="283.750064" style="fill: #d97706; fill-opacity: 0.65; stroke: #d97706; stroke-opacity: 0.65"/>
     <use xlink:href="#m99d594dd77" x="520.44276" y="276.136041" style="fill: #d97706; fill-opacity: 0.65; stroke: #d97706; stroke-opacity: 0.65"/>
     <use xlink:href="#m99d594dd77" x="534.359743" y="294.754001" style="fill: #d97706; fill-opacity: 0.65; stroke: #d97706; stroke-opacity: 0.65"/>
     <use xlink:href="#m99d594dd77" x="548.276726" y="315.774401" style="fill: #d97706; fill-opacity: 0.65; stroke: #d97706; stroke-opacity: 0.65"/>
     <use xlink:href="#m99d594dd77" x="562.19371" y="316.779238" style="fill: #d97706; fill-opacity: 0.65; stroke: #d97706; stroke-opacity: 0.65"/>
     <use xlink:href="#m99d594dd77" x="576.110693" y="312.195945" style="fill: #d97706; fill-opacity: 0.65; stroke: #d97706; stroke-opacity: 0.65"/>
     <use xlink:href="#m99d594dd77" x="590.027676" y="354.826816" style="fill: #d97706; fill-opacity: 0.65; stroke: #d97706; stroke-opacity: 0.65"/>
     <use xlink:href="#m99d594dd77" x="603.944659" y="346.560994" style="fill: #d97706; fill-opacity: 0.65; stroke: #d97706; stroke-opacity: 0.65"/>
     <use xlink:href="#m99d594dd77" x="617.861643" y="347.93696" style="fill: #d97706; fill-opacity: 0.65; stroke: #d97706; stroke-opacity: 0.65"/>
    </g>
   </g>
   <g id="matplotlib.axis_3">
    <g id="xtick_10">
     <g id="line2d_18">
      <g>
       <use xlink:href="#m8e4aed5a9e" x="75.099295" y="364.634968" style="stroke: #000000; stroke-width: 0.8"/>
      </g>
     </g>
    </g>
    <g id="xtick_11">
     <g id="line2d_19">
      <g>
       <use xlink:href="#m8e4aed5a9e" x="144.684211" y="364.634968" style="stroke: #000000; stroke-width: 0.8"/>
      </g>
     </g>
    </g>
    <g id="xtick_12">
     <g id="line2d_20">
      <g>
       <use xlink:href="#m8e4aed5a9e" x="214.269128" y="364.634968" style="stroke: #000000; stroke-width: 0.8"/>
      </g>
     </g>
    </g>
    <g id="xtick_13">
     <g id="line2d_21">
      <g>
       <use xlink:href="#m8e4aed5a9e" x="283.854044" y="364.634968" style="stroke: #000000; stroke-width: 0.8"/>
      </g>
     </g>
    </g>
    <g id="xtick_14">
     <g id="line2d_22">
      <g>
       <use xlink:href="#m8e4aed5a9e" x="353.43896" y="364.634968" style="stroke: #000000; stroke-width: 0.8"/>
      </g>
     </g>
    </g>
    <g id="xtick_15">
     <g id="line2d_23">
      <g>
       <use xlink:href="#m8e4aed5a9e" x="423.023877" y="364.634968" style="stroke: #000000; stroke-width: 0.8"/>
      </g>
     </g>
    </g>
    <g id="xtick_16">
     <g id="line2d_24">
      <g>
       <use xlink:href="#m8e4aed5a9e" x="492.608793" y="364.634968" style="stroke: #000000; stroke-width: 0.8"/>
      </g>
     </g>
    </g>
    <g id="xtick_17">
     <g id="line2d_25">
      <g>
       <use xlink:href="#m8e4aed5a9e" x="562.19371" y="364.634968" style="stroke: #000000; stroke-width: 0.8"/>
      </g>
     </g>
    </g>
    <g id="xtick_18">
     <g id="line2d_26">
      <g>
       <use xlink:href="#m8e4aed5a9e" x="631.778626" y="364.634968" style="stroke: #000000; stroke-width: 0.8"/>
      </g>
     </g>
    </g>
   </g>
   <g id="matplotlib.axis_4">
    <g id="ytick_8">
     <g id="line2d_27">
      <g>
       <use xlink:href="#m298b946821" x="47.961178" y="348.089827" style="stroke: #000000; stroke-width: 0.8"/>
      </g>
     </g>
     <g id="text_10">
      <!-- −0.2 -->
      <g transform="translate(16.678365 351.889046) scale(0.1 -0.1)">
       <use xlink:href="#DejaVuSans-2212"/>
       <use xlink:href="#DejaVuSans-30" transform="translate(83.789062 0)"/>
       <use xlink:href="#DejaVuSans-2e" transform="translate(147.412109 0)"/>
       <use xlink:href="#DejaVuSans-32" transform="translate(179.199219 0)"/>
      </g>
     </g>
    </g>
    <g id="ytick_9">
     <g id="line2d_28">
      <g>
       <use xlink:href="#m298b946821" x="47.961178" y="318.590444" style="stroke: #000000; stroke-width: 0.8"/>
      </g>
     </g>
     <g id="text_11">
      <!-- 0.0 -->
      <g transform="translate(25.058053 322.389662) scale(0.1 -0.1)">
       <use xlink:href="#DejaVuSans-30"/>
       <use xlink:href="#DejaVuSans-2e" transform="translate(63.623047 0)"/>
       <use xlink:href="#DejaVuSans-30" transform="translate(95.410156 0)"/>
      </g>
     </g>
    </g>
    <g id="ytick_10">
     <g id="line2d_29">
      <g>
       <use xlink:href="#m298b946821" x="47.961178" y="289.09106" style="stroke: #000000; stroke-width: 0.8"/>
      </g>
     </g>
     <g id="text_12">
      <!-- 0.2 -->
      <g transform="translate(25.058053 292.890279) scale(0.1 -0.1)">
       <use xlink:href="#DejaVuSans-30"/>
       <use xlink:href="#DejaVuSans-2e" transform="translate(63.623047 0)"/>
       <use xlink:href="#DejaVuSans-32" transform="translate(95.410156 0)"/>
      </g>
     </g>
    </g>
    <g id="ytick_11">
     <g id="line2d_30">
      <g>
       <use xlink:href="#m298b946821" x="47.961178" y="259.591676" style="stroke: #000000; stroke-width: 0.8"/>
      </g>
     </g>
     <g id="text_13">
      <!-- 0.4 -->
      <g transform="translate(25.058053 263.390895) scale(0.1 -0.1)">
       <use xlink:href="#DejaVuSans-30"/>
       <use xlink:href="#DejaVuSans-2e" transform="translate(63.623047 0)"/>
       <use xlink:href="#DejaVuSans-34" transform="translate(95.410156 0)"/>
      </g>
     </g>
    </g>
    <g id="ytick_12">
     <g id="line2d_31">
      <g>
       <use xlink:href="#m298b946821" x="47.961178" y="230.092293" style="stroke: #000000; stroke-width: 0.8"/>
      </g>
     </g>
     <g id="text_14">
      <!-- 0.6 -->
      <g transform="translate(25.058053 233.891512) scale(0.1 -0.1)">
       <use xlink:href="#DejaVuSans-30"/>
       <use xlink:href="#DejaVuSans-2e" transform="translate(63.623047 0)"/>
       <use xlink:href="#DejaVuSans-36" transform="translate(95.410156 0)"/>
      </g>
     </g>
    </g>
    <g id="ytick_13">
     <g id="line2d_32">
      <g>
       <use xlink:href="#m298b946821" x="47.961178" y="200.592909" style="stroke: #000000; stroke-width: 0.8"/>
      </g>
     </g>
     <g id="text_15">
      <!-- 0.8 -->
      <g transform="translate(25.058053 204.392128) scale(0.1 -0.1)">
       <defs>
        <path id="DejaVuSans-38" d="M 2034 2216 
Q 1584 2216 1326 1975 
Q 1069 1734 1069 1313 
Q 1069 891 1326 650 
Q 1584 409 2034 409 
Q 2484 409 2743 651 
Q 3003 894 3003 1313 
Q 3003 1734 2745 1975 
Q 2488 2216 2034 2216 
z
M 1403 2484 
Q 997 2584 770 2862 
Q 544 3141 544 3541 
Q 544 4100 942 4425 
Q 1341 4750 2034 4750 
Q 2731 4750 3128 4425 
Q 3525 4100 3525 3541 
Q 3525 3141 3298 2862 
Q 3072 2584 2669 2484 
Q 3125 2378 3379 2068 
Q 3634 1759 3634 1313 
Q 3634 634 3220 271 
Q 2806 -91 2034 -91 
Q 1263 -91 848 271 
Q 434 634 434 1313 
Q 434 1759 690 2068 
Q 947 2378 1403 2484 
z
M 1172 3481 
Q 1172 3119 1398 2916 
Q 1625 2713 2034 2713 
Q 2441 2713 2670 2916 
Q 2900 3119 2900 3481 
Q 2900 3844 2670 4047 
Q 2441 4250 2034 4250 
Q 1625 4250 1398 4047 
Q 1172 3844 1172 3481 
z
" transform="scale(0.015625)"/>
       </defs>
       <use xlink:href="#DejaVuSans-30"/>
       <use xlink:href="#DejaVuSans-2e" transform="translate(63.623047 0)"/>
       <use xlink:href="#DejaVuSans-38" transform="translate(95.410156 0)"/>
      </g>
     </g>
    </g>
    <g id="text_16">
     <!-- angle -->
     <g transform="translate(10.598678 294.253594) rotate(-90) scale(0.1 -0.1)">
      <defs>
       <path id="DejaVuSans-67" d="M 2906 1791 
Q 2906 2416 2648 2759 
Q 2391 3103 1925 3103 
Q 1463 3103 1205 2759 
Q 947 2416 947 1791 
Q 947 1169 1205 825 
Q 1463 481 1925 481 
Q 2391 481 2648 825 
Q 2906 1169 2906 1791 
z
M 3481 434 
Q 3481 -459 3084 -895 
Q 2688 -1331 1869 -1331 
Q 1566 -1331 1297 -1286 
Q 1028 -1241 775 -1147 
L 775 -588 
Q 1028 -725 1275 -790 
Q 1522 -856 1778 -856 
Q 2344 -856 2625 -561 
Q 2906 -266 2906 331 
L 2906 616 
Q 2728 306 2450 153 
Q 2172 0 1784 0 
Q 1141 0 747 490 
Q 353 981 353 1791 
Q 353 2603 747 3093 
Q 1141 3584 1784 3584 
Q 2172 3584 2450 3431 
Q 2728 3278 2906 2969 
L 2906 3500 
L 3481 3500 
L 3481 434 
z
" transform="scale(0.015625)"/>
      </defs>
      <use xlink:href="#DejaVuSans-61"/>
      <use xlink:href="#DejaVuSans-6e" transform="translate(61.279297 0)"/>
      <use xlink:href="#DejaVuSans-67" transform="translate(124.658203 0)"/>
      <use xlink:href="#DejaVuSans-6c" transform="translate(188.134766 0)"/>
      <use xlink:href="#DejaVuSans-65" transform="translate(215.917969 0)"/>
     </g>
    </g>
   </g>
   <g id="line2d_33">
    <path d="M 75.099295 215.342601 
L 89.016278 217.104479 
L 102.933261 219.354756 
L 116.850245 221.967918 
L 130.767228 224.823542 
L 144.684211 227.808447 
L 158.601195 230.818744 
L 172.518178 233.761605 
L 186.435161 236.556862 
L 200.352144 239.138114 
L 214.269128 241.453836 
L 228.186111 243.468169 
L 242.103094 245.161204 
L 256.020077 246.529058 
L 269.937061 247.583674 
L 283.854044 248.351964 
L 297.771027 248.875021 
L 311.688011 249.206856 
L 325.604994 249.412975 
L 339.521977 249.568455 
L 353.43896 249.756184 
L 367.355944 250.064676 
L 381.272927 250.585929 
L 395.18991 251.413113 
L 409.106893 252.638235 
L 423.023877 254.349939 
L 436.94086 256.631104 
L 450.857843 259.556665 
L 464.774827 263.191526 
L 478.69181 267.588611 
L 492.608793 272.787123 
L 506.525776 278.811007 
L 520.44276 285.667388 
L 534.359743 293.345986 
L 548.276726 301.81852 
L 562.19371 311.038441 
L 576.110693 320.941367 
L 590.027676 331.445907 
L 603.944659 342.454969 
L 617.861643 353.857822 
" clip-path="url(#pec1d9f4348)" style="fill: none; stroke: #111827; stroke-width: 2; stroke-linecap: square"/>
   </g>
   <g id="line2d_34">
    <path d="M 75.099295 207.165234 
L 89.016278 222.07107 
L 102.933261 225.327167 
L 116.850245 232.992859 
L 130.767228 243.112878 
L 144.684211 233.710627 
L 158.601195 232.051215 
L 172.518178 230.148925 
L 186.435161 228.540909 
L 200.352144 231.129156 
L 214.269128 232.243252 
L 228.186111 234.914541 
L 242.103094 231.296529 
L 256.020077 235.260725 
L 269.937061 235.469483 
L 283.854044 240.724951 
L 297.771027 244.872933 
L 311.688011 245.699182 
L 325.604994 246.393882 
L 339.521977 248.977375 
L 353.43896 251.294084 
L 367.355944 252.524579 
L 381.272927 252.67624 
L 395.18991 257.332788 
L 409.106893 254.604107 
L 423.023877 251.856637 
L 436.94086 244.559517 
L 450.857843 252.044407 
L 464.774827 256.42099 
L 478.69181 264.909879 
L 492.608793 273.055026 
L 506.525776 280.661931 
L 520.44276 284.321298 
L 534.359743 292.928813 
L 548.276726 305.818451 
L 562.19371 315.774277 
L 576.110693 321.847551 
L 590.027676 339.108455 
L 603.944659 349.252329 
L 617.861643 356.975511 
" clip-path="url(#pec1d9f4348)" style="fill: none; stroke: #2563eb; stroke-width: 1.8; stroke-linecap: square"/>
   </g>
   <g id="line2d_35">
    <path d="M 75.099295 222.902154 
L 89.016278 225.230074 
L 102.933261 226.908127 
L 116.850245 228.809417 
L 130.767228 229.870825 
L 144.684211 228.98619 
L 158.601195 229.422308 
L 172.518178 230.134611 
L 186.435161 231.333127 
L 200.352144 233.170033 
L 214.269128 234.785998 
L 228.186111 236.45678 
L 242.103094 237.743193 
L 256.020077 240.339963 
L 269.937061 242.485948 
L 283.854044 245.145476 
L 297.771027 246.942761 
L 311.688011 247.913394 
L 325.604994 248.854062 
L 339.521977 249.859442 
L 353.43896 250.407172 
L 367.355944 250.491076 
L 381.272927 250.385579 
L 395.18991 250.472694 
L 409.106893 249.432841 
L 423.023877 249.40685 
L 436.94086 250.870409 
L 450.857843 255.946682 
L 464.774827 261.057463 
L 478.69181 267.24829 
L 492.608793 273.529918 
L 506.525776 280.02904 
L 520.44276 286.97878 
L 534.359743 295.822853 
L 548.276726 305.532679 
L 562.19371 314.905557 
L 576.110693 324.710672 
L 590.027676 336.30583 
L 603.944659 346.476968 
L 617.861643 356.975511 
" clip-path="url(#pec1d9f4348)" style="fill: none; stroke: #dc2626; stroke-width: 1.8; stroke-linecap: square"/>
   </g>
   <g id="patch_8">
    <path d="M 47.961178 364.634968 
L 47.961178 196.126907 
" style="fill: none; stroke: #000000; stroke-width: 0.8; stroke-linejoin: miter; stroke-linecap: square"/>
   </g>
   <g id="patch_9">
    <path d="M 644.99976 364.634968 
L 644.99976 196.126907 
" style="fill: none; stroke: #000000; stroke-width: 0.8; stroke-linejoin: miter; stroke-linecap: square"/>
   </g>
   <g id="patch_10">
    <path d="M 47.961178 364.634968 
L 644.99976 364.634968 
" style="fill: none; stroke: #000000; stroke-width: 0.8; stroke-linejoin: miter; stroke-linecap: square"/>
   </g>
   <g id="patch_11">
    <path d="M 47.961178 196.126907 
L 644.99976 196.126907 
" style="fill: none; stroke: #000000; stroke-width: 0.8; stroke-linejoin: miter; stroke-linecap: square"/>
   </g>
   <g id="legend_1">
    <g id="patch_12">
     <path d="M 289.591166 216.537219 
L 638.69976 216.537219 
Q 640.49976 216.537219 640.49976 214.737219 
L 640.49976 202.426907 
Q 640.49976 200.626907 638.69976 200.626907 
L 289.591166 200.626907 
Q 287.791166 200.626907 287.791166 202.426907 
L 287.791166 214.737219 
Q 287.791166 216.537219 289.591166 216.537219 
z
" style="fill: #ffffff; opacity: 0.8; stroke: #cccccc; stroke-linejoin: miter"/>
    </g>
    <g id="line2d_36">
     <path d="M 291.391166 207.9155 
L 300.391166 207.9155 
L 309.391166 207.9155 
" style="fill: none; stroke: #111827; stroke-width: 2; stroke-linecap: square"/>
    </g>
    <g id="text_17">
     <!-- true angle -->
     <g transform="translate(316.591166 211.0655) scale(0.09 -0.09)">
      <use xlink:href="#DejaVuSans-74"/>
      <use xlink:href="#DejaVuSans-72" transform="translate(39.208984 0)"/>
      <use xlink:href="#DejaVuSans-75" transform="translate(80.322266 0)"/>
      <use xlink:href="#DejaVuSans-65" transform="translate(143.701172 0)"/>
      <use xlink:href="#DejaVuSans-20" transform="translate(205.224609 0)"/>
      <use xlink:href="#DejaVuSans-61" transform="translate(237.011719 0)"/>
      <use xlink:href="#DejaVuSans-6e" transform="translate(298.291016 0)"/>
      <use xlink:href="#DejaVuSans-67" transform="translate(361.669922 0)"/>
      <use xlink:href="#DejaVuSans-6c" transform="translate(425.146484 0)"/>
      <use xlink:href="#DejaVuSans-65" transform="translate(452.929688 0)"/>
     </g>
    </g>
    <g id="PathCollection_2">
     <g>
      <use xlink:href="#m99d594dd77" x="389.891948" y="208.703" style="fill: #d97706; fill-opacity: 0.65; stroke: #d97706; stroke-opacity: 0.65"/>
     </g>
    </g>
    <g id="text_18">
     <!-- measurements -->
     <g transform="translate(406.091948 211.0655) scale(0.09 -0.09)">
      <use xlink:href="#DejaVuSans-6d"/>
      <use xlink:href="#DejaVuSans-65" transform="translate(97.412109 0)"/>
      <use xlink:href="#DejaVuSans-61" transform="translate(158.935547 0)"/>
      <use xlink:href="#DejaVuSans-73" transform="translate(220.214844 0)"/>
      <use xlink:href="#DejaVuSans-75" transform="translate(272.314453 0)"/>
      <use xlink:href="#DejaVuSans-72" transform="translate(335.693359 0)"/>
      <use xlink:href="#DejaVuSans-65" transform="translate(374.556641 0)"/>
      <use xlink:href="#DejaVuSans-6d" transform="translate(436.080078 0)"/>
      <use xlink:href="#DejaVuSans-65" transform="translate(533.492188 0)"/>
      <use xlink:href="#DejaVuSans-6e" transform="translate(595.015625 0)"/>
      <use xlink:href="#DejaVuSans-74" transform="translate(658.394531 0)"/>
      <use xlink:href="#DejaVuSans-73" transform="translate(697.603516 0)"/>
     </g>
    </g>
    <g id="line2d_37">
     <path d="M 491.563823 207.9155 
L 500.563823 207.9155 
L 509.563823 207.9155 
" style="fill: none; stroke: #2563eb; stroke-width: 1.8; stroke-linecap: square"/>
    </g>
    <g id="text_19">
     <!-- filtered -->
     <g transform="translate(516.763823 211.0655) scale(0.09 -0.09)">
      <defs>
       <path id="DejaVuSans-66" d="M 2375 4863 
L 2375 4384 
L 1825 4384 
Q 1516 4384 1395 4259 
Q 1275 4134 1275 3809 
L 1275 3500 
L 2222 3500 
L 2222 3053 
L 1275 3053 
L 1275 0 
L 697 0 
L 697 3053 
L 147 3053 
L 147 3500 
L 697 3500 
L 697 3744 
Q 697 4328 969 4595 
Q 1241 4863 1831 4863 
L 2375 4863 
z
" transform="scale(0.015625)"/>
       <path id="DejaVuSans-64" d="M 2906 2969 
L 2906 4863 
L 3481 4863 
L 3481 0 
L 2906 0 
L 2906 525 
Q 2725 213 2448 61 
Q 2172 -91 1784 -91 
Q 1150 -91 751 415 
Q 353 922 353 1747 
Q 353 2572 751 3078 
Q 1150 3584 1784 3584 
Q 2172 3584 2448 3432 
Q 2725 3281 2906 2969 
z
M 947 1747 
Q 947 1113 1208 752 
Q 1469 391 1925 391 
Q 2381 391 2643 752 
Q 2906 1113 2906 1747 
Q 2906 2381 2643 2742 
Q 2381 3103 1925 3103 
Q 1469 3103 1208 2742 
Q 947 2381 947 1747 
z
" transform="scale(0.015625)"/>
      </defs>
      <use xlink:href="#DejaVuSans-66"/>
      <use xlink:href="#DejaVuSans-69" transform="translate(35.205078 0)"/>
      <use xlink:href="#DejaVuSans-6c" transform="translate(62.988281 0)"/>
      <use xlink:href="#DejaVuSans-74" transform="translate(90.771484 0)"/>
      <use xlink:href="#DejaVuSans-65" transform="translate(129.980469 0)"/>
      <use xlink:href="#DejaVuSans-72" transform="translate(191.503906 0)"/>
      <use xlink:href="#DejaVuSans-65" transform="translate(230.367188 0)"/>
      <use xlink:href="#DejaVuSans-64" transform="translate(291.890625 0)"/>
     </g>
    </g>
    <g id="line2d_38">
     <path d="M 566.747573 207.9155 
L 575.747573 207.9155 
L 584.747573 207.9155 
" style="fill: none; stroke: #dc2626; stroke-width: 1.8; stroke-linecap: square"/>
    </g>
    <g id="text_20">
     <!-- smoothed -->
     <g transform="translate(591.947573 211.0655) scale(0.09 -0.09)">
      <defs>
       <path id="DejaVuSans-68" d="M 3513 2113 
L 3513 0 
L 2938 0 
L 2938 2094 
Q 2938 2591 2744 2837 
Q 2550 3084 2163 3084 
Q 1697 3084 1428 2787 
Q 1159 2491 1159 1978 
L 1159 0 
L 581 0 
L 581 4863 
L 1159 4863 
L 1159 2956 
Q 1366 3272 1645 3428 
Q 1925 3584 2291 3584 
Q 2894 3584 3203 3211 
Q 3513 2838 3513 2113 
z
" transform="scale(0.015625)"/>
      </defs>
      <use xlink:href="#DejaVuSans-73"/>
      <use xlink:href="#DejaVuSans-6d" transform="translate(52.099609 0)"/>
      <use xlink:href="#DejaVuSans-6f" transform="translate(149.511719 0)"/>
      <use xlink:href="#DejaVuSans-6f" transform="translate(210.693359 0)"/>
      <use xlink:href="#DejaVuSans-74" transform="translate(271.875 0)"/>
      <use xlink:href="#DejaVuSans-68" transform="translate(311.083984 0)"/>
      <use xlink:href="#DejaVuSans-65" transform="translate(374.462891 0)"/>
      <use xlink:href="#DejaVuSans-64" transform="translate(435.986328 0)"/>
     </g>
    </g>
   </g>
  </g>
  <g id="axes_3">
   <g id="patch_13">
    <path d="M 47.961178 542.64351 
L 644.99976 542.64351 
L 644.99976 374.135448 
L 47.961178 374.135448 
z
" style="fill: #ffffff"/>
   </g>
   <g id="matplotlib.axis_5">
    <g id="xtick_19">
     <g id="line2d_39">
      <g>
       <use xlink:href="#m8e4aed5a9e" x="75.099295" y="542.64351" style="stroke: #000000; stroke-width: 0.8"/>
      </g>
     </g>
     <g id="text_21">
      <!-- 0.0 -->
      <g transform="translate(67.147732 557.241948) scale(0.1 -0.1)">
       <use xlink:href="#DejaVuSans-30"/>
       <use xlink:href="#DejaVuSans-2e" transform="translate(63.623047 0)"/>
       <use xlink:href="#DejaVuSans-30" transform="translate(95.410156 0)"/>
      </g>
     </g>
    </g>
    <g id="xtick_20">
     <g id="line2d_40">
      <g>
       <use xlink:href="#m8e4aed5a9e" x="144.684211" y="542.64351" style="stroke: #000000; stroke-width: 0.8"/>
      </g>
     </g>
     <g id="text_22">
      <!-- 0.5 -->
      <g transform="translate(136.732649 557.241948) scale(0.1 -0.1)">
       <defs>
        <path id="DejaVuSans-35" d="M 691 4666 
L 3169 4666 
L 3169 4134 
L 1269 4134 
L 1269 2991 
Q 1406 3038 1543 3061 
Q 1681 3084 1819 3084 
Q 2600 3084 3056 2656 
Q 3513 2228 3513 1497 
Q 3513 744 3044 326 
Q 2575 -91 1722 -91 
Q 1428 -91 1123 -41 
Q 819 9 494 109 
L 494 744 
Q 775 591 1075 516 
Q 1375 441 1709 441 
Q 2250 441 2565 725 
Q 2881 1009 2881 1497 
Q 2881 1984 2565 2268 
Q 2250 2553 1709 2553 
Q 1456 2553 1204 2497 
Q 953 2441 691 2322 
L 691 4666 
z
" transform="scale(0.015625)"/>
       </defs>
       <use xlink:href="#DejaVuSans-30"/>
       <use xlink:href="#DejaVuSans-2e" transform="translate(63.623047 0)"/>
       <use xlink:href="#DejaVuSans-35" transform="translate(95.410156 0)"/>
      </g>
     </g>
    </g>
    <g id="xtick_21">
     <g id="line2d_41">
      <g>
       <use xlink:href="#m8e4aed5a9e" x="214.269128" y="542.64351" style="stroke: #000000; stroke-width: 0.8"/>
      </g>
     </g>
     <g id="text_23">
      <!-- 1.0 -->
      <g transform="translate(206.317565 557.241948) scale(0.1 -0.1)">
       <defs>
        <path id="DejaVuSans-31" d="M 794 531 
L 1825 531 
L 1825 4091 
L 703 3866 
L 703 4441 
L 1819 4666 
L 2450 4666 
L 2450 531 
L 3481 531 
L 3481 0 
L 794 0 
L 794 531 
z
" transform="scale(0.015625)"/>
       </defs>
       <use xlink:href="#DejaVuSans-31"/>
       <use xlink:href="#DejaVuSans-2e" transform="translate(63.623047 0)"/>
       <use xlink:href="#DejaVuSans-30" transform="translate(95.410156 0)"/>
      </g>
     </g>
    </g>
    <g id="xtick_22">
     <g id="line2d_42">
      <g>
       <use xlink:href="#m8e4aed5a9e" x="283.854044" y="542.64351" style="stroke: #000000; stroke-width: 0.8"/>
      </g>
     </g>
     <g id="text_24">
      <!-- 1.5 -->
      <g transform="translate(275.902482 557.241948) scale(0.1 -0.1)">
       <use xlink:href="#DejaVuSans-31"/>
       <use xlink:href="#DejaVuSans-2e" transform="translate(63.623047 0)"/>
       <use xlink:href="#DejaVuSans-35" transform="translate(95.410156 0)"/>
      </g>
     </g>
    </g>
    <g id="xtick_23">
     <g id="line2d_43">
      <g>
       <use xlink:href="#m8e4aed5a9e" x="353.43896" y="542.64351" style="stroke: #000000; stroke-width: 0.8"/>
      </g>
     </g>
     <g id="text_25">
      <!-- 2.0 -->
      <g transform="translate(345.487398 557.241948) scale(0.1 -0.1)">
       <use xlink:href="#DejaVuSans-32"/>
       <use xlink:href="#DejaVuSans-2e" transform="translate(63.623047 0)"/>
       <use xlink:href="#DejaVuSans-30" transform="translate(95.410156 0)"/>
      </g>
     </g>
    </g>
    <g id="xtick_24">
     <g id="line2d_44">
      <g>
       <use xlink:href="#m8e4aed5a9e" x="423.023877" y="542.64351" style="stroke: #000000; stroke-width: 0.8"/>
      </g>
     </g>
     <g id="text_26">
      <!-- 2.5 -->
      <g transform="translate(415.072314 557.241948) scale(0.1 -0.1)">
       <use xlink:href="#DejaVuSans-32"/>
       <use xlink:href="#DejaVuSans-2e" transform="translate(63.623047 0)"/>
       <use xlink:href="#DejaVuSans-35" transform="translate(95.410156 0)"/>
      </g>
     </g>
    </g>
    <g id="xtick_25">
     <g id="line2d_45">
      <g>
       <use xlink:href="#m8e4aed5a9e" x="492.608793" y="542.64351" style="stroke: #000000; stroke-width: 0.8"/>
      </g>
     </g>
     <g id="text_27">
      <!-- 3.0 -->
      <g transform="translate(484.657231 557.241948) scale(0.1 -0.1)">
       <defs>
        <path id="DejaVuSans-33" d="M 2597 2516 
Q 3050 2419 3304 2112 
Q 3559 1806 3559 1356 
Q 3559 666 3084 287 
Q 2609 -91 1734 -91 
Q 1441 -91 1130 -33 
Q 819 25 488 141 
L 488 750 
Q 750 597 1062 519 
Q 1375 441 1716 441 
Q 2309 441 2620 675 
Q 2931 909 2931 1356 
Q 2931 1769 2642 2001 
Q 2353 2234 1838 2234 
L 1294 2234 
L 1294 2753 
L 1863 2753 
Q 2328 2753 2575 2939 
Q 2822 3125 2822 3475 
Q 2822 3834 2567 4026 
Q 2313 4219 1838 4219 
Q 1578 4219 1281 4162 
Q 984 4106 628 3988 
L 628 4550 
Q 988 4650 1302 4700 
Q 1616 4750 1894 4750 
Q 2613 4750 3031 4423 
Q 3450 4097 3450 3541 
Q 3450 3153 3228 2886 
Q 3006 2619 2597 2516 
z
" transform="scale(0.015625)"/>
       </defs>
       <use xlink:href="#DejaVuSans-33"/>
       <use xlink:href="#DejaVuSans-2e" transform="translate(63.623047 0)"/>
       <use xlink:href="#DejaVuSans-30" transform="translate(95.410156 0)"/>
      </g>
     </g>
    </g>
    <g id="xtick_26">
     <g id="line2d_46">
      <g>
       <use xlink:href="#m8e4aed5a9e" x="562.19371" y="542.64351" style="stroke: #000000; stroke-width: 0.8"/>
      </g>
     </g>
     <g id="text_28">
      <!-- 3.5 -->
      <g transform="translate(554.242147 557.241948) scale(0.1 -0.1)">
       <use xlink:href="#DejaVuSans-33"/>
       <use xlink:href="#DejaVuSans-2e" transform="translate(63.623047 0)"/>
       <use xlink:href="#DejaVuSans-35" transform="translate(95.410156 0)"/>
      </g>
     </g>
    </g>
    <g id="xtick_27">
     <g id="line2d_47">
      <g>
       <use xlink:href="#m8e4aed5a9e" x="631.778626" y="542.64351" style="stroke: #000000; stroke-width: 0.8"/>
      </g>
     </g>
     <g id="text_29">
      <!-- 4.0 -->
      <g transform="translate(623.827063 557.241948) scale(0.1 -0.1)">
       <use xlink:href="#DejaVuSans-34"/>
       <use xlink:href="#DejaVuSans-2e" transform="translate(63.623047 0)"/>
       <use xlink:href="#DejaVuSans-30" transform="translate(95.410156 0)"/>
      </g>
     </g>
    </g>
    <g id="text_30">
     <!-- time [s] -->
     <g transform="translate(327.089063 570.920072) scale(0.1 -0.1)">
      <defs>
       <path id="DejaVuSans-5b" d="M 550 4863 
L 1875 4863 
L 1875 4416 
L 1125 4416 
L 1125 -397 
L 1875 -397 
L 1875 -844 
L 550 -844 
L 550 4863 
z
" transform="scale(0.015625)"/>
       <path id="DejaVuSans-5d" d="M 1947 4863 
L 1947 -844 
L 622 -844 
L 622 -397 
L 1369 -397 
L 1369 4416 
L 622 4416 
L 622 4863 
L 1947 4863 
z
" transform="scale(0.015625)"/>
      </defs>
      <use xlink:href="#DejaVuSans-74"/>
      <use xlink:href="#DejaVuSans-69" transform="translate(39.208984 0)"/>
      <use xlink:href="#DejaVuSans-6d" transform="translate(66.992188 0)"/>
      <use xlink:href="#DejaVuSans-65" transform="translate(164.404297 0)"/>
      <use xlink:href="#DejaVuSans-20" transform="translate(225.927734 0)"/>
      <use xlink:href="#DejaVuSans-5b" transform="translate(257.714844 0)"/>
      <use xlink:href="#DejaVuSans-73" transform="translate(296.728516 0)"/>
      <use xlink:href="#DejaVuSans-5d" transform="translate(348.828125 0)"/>
     </g>
    </g>
   </g>
   <g id="matplotlib.axis_6">
    <g id="ytick_14">
     <g id="line2d_48">
      <g>
       <use xlink:href="#m298b946821" x="47.961178" y="537.518884" style="stroke: #000000; stroke-width: 0.8"/>
      </g>
     </g>
     <g id="text_31">
      <!-- −0.8 -->
      <g transform="translate(16.678365 541.318103) scale(0.1 -0.1)">
       <use xlink:href="#DejaVuSans-2212"/>
       <use xlink:href="#DejaVuSans-30" transform="translate(83.789062 0)"/>
       <use xlink:href="#DejaVuSans-2e" transform="translate(147.412109 0)"/>
       <use xlink:href="#DejaVuSans-38" transform="translate(179.199219 0)"/>
      </g>
     </g>
    </g>
    <g id="ytick_15">
     <g id="line2d_49">
      <g>
       <use xlink:href="#m298b946821" x="47.961178" y="506.374088" style="stroke: #000000; stroke-width: 0.8"/>
      </g>
     </g>
     <g id="text_32">
      <!-- −0.6 -->
      <g transform="translate(16.678365 510.173307) scale(0.1 -0.1)">
       <use xlink:href="#DejaVuSans-2212"/>
       <use xlink:href="#DejaVuSans-30" transform="translate(83.789062 0)"/>
       <use xlink:href="#DejaVuSans-2e" transform="translate(147.412109 0)"/>
       <use xlink:href="#DejaVuSans-36" transform="translate(179.199219 0)"/>
      </g>
     </g>
    </g>
    <g id="ytick_16">
     <g id="line2d_50">
      <g>
       <use xlink:href="#m298b946821" x="47.961178" y="475.229293" style="stroke: #000000; stroke-width: 0.8"/>
      </g>
     </g>
     <g id="text_33">
      <!-- −0.4 -->
      <g transform="translate(16.678365 479.028512) scale(0.1 -0.1)">
       <use xlink:href="#DejaVuSans-2212"/>
       <use xlink:href="#DejaVuSans-30" transform="translate(83.789062 0)"/>
       <use xlink:href="#DejaVuSans-2e" transform="translate(147.412109 0)"/>
       <use xlink:href="#DejaVuSans-34" transform="translate(179.199219 0)"/>
      </g>
     </g>
    </g>
    <g id="ytick_17">
     <g id="line2d_51">
      <g>
       <use xlink:href="#m298b946821" x="47.961178" y="444.084497" style="stroke: #000000; stroke-width: 0.8"/>
      </g>
     </g>
     <g id="text_34">
      <!-- −0.2 -->
      <g transform="translate(16.678365 447.883716) scale(0.1 -0.1)">
       <use xlink:href="#DejaVuSans-2212"/>
       <use xlink:href="#DejaVuSans-30" transform="translate(83.789062 0)"/>
       <use xlink:href="#DejaVuSans-2e" transform="translate(147.412109 0)"/>
       <use xlink:href="#DejaVuSans-32" transform="translate(179.199219 0)"/>
      </g>
     </g>
    </g>
    <g id="ytick_18">
     <g id="line2d_52">
      <g>
       <use xlink:href="#m298b946821" x="47.961178" y="412.939701" style="stroke: #000000; stroke-width: 0.8"/>
      </g>
     </g>
     <g id="text_35">
      <!-- 0.0 -->
      <g transform="translate(25.058053 416.73892) scale(0.1 -0.1)">
       <use xlink:href="#DejaVuSans-30"/>
       <use xlink:href="#DejaVuSans-2e" transform="translate(63.623047 0)"/>
       <use xlink:href="#DejaVuSans-30" transform="translate(95.410156 0)"/>
      </g>
     </g>
    </g>
    <g id="ytick_19">
     <g id="line2d_53">
      <g>
       <use xlink:href="#m298b946821" x="47.961178" y="381.794906" style="stroke: #000000; stroke-width: 0.8"/>
      </g>
     </g>
     <g id="text_36">
      <!-- 0.2 -->
      <g transform="translate(25.058053 385.594124) scale(0.1 -0.1)">
       <use xlink:href="#DejaVuSans-30"/>
       <use xlink:href="#DejaVuSans-2e" transform="translate(63.623047 0)"/>
       <use xlink:href="#DejaVuSans-32" transform="translate(95.410156 0)"/>
      </g>
     </g>
    </g>
    <g id="text_37">
     <!-- rate -->
     <g transform="translate(10.598678 468.545729) rotate(-90) scale(0.1 -0.1)">
      <use xlink:href="#DejaVuSans-72"/>
      <use xlink:href="#DejaVuSans-61" transform="translate(41.113281 0)"/>
      <use xlink:href="#DejaVuSans-74" transform="translate(102.392578 0)"/>
      <use xlink:href="#DejaVuSans-65" transform="translate(141.601562 0)"/>
     </g>
    </g>
   </g>
   <g id="line2d_54">
    <path d="M 75.099295 428.512099 
L 89.016278 434.34365 
L 102.933261 438.830397 
L 116.850245 442.014874 
L 130.767228 443.962769 
L 144.684211 444.761358 
L 158.601195 444.518176 
L 172.518178 443.359871 
L 186.435161 441.424963 
L 200.352144 438.867069 
L 214.269128 435.846691 
L 228.186111 432.531345 
L 242.103094 429.090606 
L 256.020077 425.692904 
L 269.937061 422.502391 
L 283.854044 419.672359 
L 297.771027 417.346845 
L 311.688011 415.654934 
L 325.604994 414.708893 
L 339.521977 414.599827 
L 353.43896 415.399622 
L 367.355944 417.156243 
L 381.272927 419.894258 
L 395.18991 423.613865 
L 409.106893 428.291308 
L 423.023877 433.878028 
L 436.94086 440.3019 
L 450.857843 447.467183 
L 464.774827 455.257939 
L 478.69181 463.537914 
L 492.608793 472.153754 
L 506.525776 480.935781 
L 520.44276 489.702048 
L 534.359743 498.265541 
L 548.276726 506.434398 
L 562.19371 514.016506 
L 576.110693 520.825676 
L 590.027676 526.69126 
L 603.944659 531.456072 
L 617.861643 534.984053 
" clip-path="url(#p6ba3db0a73)" style="fill: none; stroke: #111827; stroke-width: 2; stroke-linecap: square"/>
   </g>
   <g id="line2d_55">
    <path d="M 75.099295 381.794906 
L 89.016278 417.629945 
L 102.933261 428.941934 
L 116.850245 447.517076 
L 130.767228 463.84519 
L 144.684211 434.693937 
L 158.601195 428.188276 
L 172.518178 422.860908 
L 186.435161 418.974948 
L 200.352144 420.130447 
L 214.269128 418.990667 
L 228.186111 418.912088 
L 242.103094 413.766516 
L 256.020077 414.812156 
L 269.937061 413.11413 
L 283.854044 414.731255 
L 297.771027 415.430527 
L 311.688011 414.500757 
L 325.604994 414.191692 
L 339.521977 415.50772 
L 353.43896 417.231333 
L 367.355944 419.097519 
L 381.272927 421.295622 
L 395.18991 426.31334 
L 409.106893 428.598865 
L 423.023877 432.152222 
L 436.94086 435.038945 
L 450.857843 445.555726 
L 464.774827 454.485254 
L 478.69181 465.099574 
L 492.608793 475.021135 
L 506.525776 484.179522 
L 520.44276 491.266152 
L 534.359743 500.203762 
L 548.276726 509.969849 
L 562.19371 517.16208 
L 576.110693 521.791524 
L 590.027676 530.071536 
L 603.944659 533.483989 
L 617.861643 534.774877 
" clip-path="url(#p6ba3db0a73)" style="fill: none; stroke: #2563eb; stroke-width: 1.8; stroke-linecap: square"/>
   </g>
   <g id="line2d_56">
    <path d="M 75.099295 416.634363 
L 89.016278 422.343874 
L 102.933261 426.541598 
L 116.850245 429.436168 
L 130.767228 431.224482 
L 144.684211 432.338635 
L 158.601195 432.85453 
L 172.518178 432.783067 
L 186.435161 432.176726 
L 200.352144 431.055483 
L 214.269128 429.511696 
L 228.186111 427.686543 
L 242.103094 425.738146 
L 256.020077 423.688674 
L 269.937061 421.570957 
L 283.854044 419.488279 
L 297.771027 417.577343 
L 311.688011 416.104474 
L 325.604994 415.238363 
L 339.521977 415.052743 
L 353.43896 415.660957 
L 367.355944 417.221155 
L 381.272927 419.855047 
L 395.18991 423.610302 
L 409.106893 428.642746 
L 423.023877 434.98153 
L 436.94086 442.408819 
L 450.857843 450.440957 
L 464.774827 458.75148 
L 478.69181 467.248257 
L 492.608793 475.823493 
L 506.525776 484.4474 
L 520.44276 493.041834 
L 534.359743 501.340503 
L 548.276726 509.02987 
L 562.19371 516.025938 
L 576.110693 522.282242 
L 590.027676 527.518926 
L 603.944659 531.660172 
L 617.861643 534.774877 
" clip-path="url(#p6ba3db0a73)" style="fill: none; stroke: #dc2626; stroke-width: 1.8; stroke-linecap: square"/>
   </g>
   <g id="patch_14">
    <path d="M 47.961178 542.64351 
L 47.961178 374.135448 
" style="fill: none; stroke: #000000; stroke-width: 0.8; stroke-linejoin: miter; stroke-linecap: square"/>
   </g>
   <g id="patch_15">
    <path d="M 644.99976 542.64351 
L 644.99976 374.135448 
" style="fill: none; stroke: #000000; stroke-width: 0.8; stroke-linejoin: miter; stroke-linecap: square"/>
   </g>
   <g id="patch_16">
    <path d="M 47.961178 542.64351 
L 644.99976 542.64351 
" style="fill: none; stroke: #000000; stroke-width: 0.8; stroke-linejoin: miter; stroke-linecap: square"/>
   </g>
   <g id="patch_17">
    <path d="M 47.961178 374.135448 
L 644.99976 374.135448 
" style="fill: none; stroke: #000000; stroke-width: 0.8; stroke-linejoin: miter; stroke-linecap: square"/>
   </g>
  </g>
 </g>
 <defs>
  <clipPath id="p696f0e4099">
   <rect x="47.961178" y="18.118365" width="597.038583" height="168.508062"/>
  </clipPath>
  <clipPath id="pec1d9f4348">
   <rect x="47.961178" y="196.126907" width="597.038583" height="168.508062"/>
  </clipPath>
  <clipPath id="p6ba3db0a73">
   <rect x="47.961178" y="374.135448" width="597.038583" height="168.508062"/>
  </clipPath>
 </defs>
</svg>
