<svg xmlns="http://www.w3.org/2000/svg" viewBox="0 0 820 420" width="820" height="420" role="img" aria-labelledby="title desc">
<title id="title">LQR optimal execution inventory trajectory</title>
<desc id="desc">Baseline remaining inventory over 20 execution periods, compared with a smoother target urgency curve.</desc>
<rect width="100%" height="100%" fill="#fbfcf8"/>
<line x1="72" y1="364.0" x2="792" y2="364.0" stroke="#d8dfd2" stroke-width="1"/>
<line x1="72" y1="280.0" x2="792" y2="280.0" stroke="#d8dfd2" stroke-width="1"/>
<line x1="72" y1="196.0" x2="792" y2="196.0" stroke="#d8dfd2" stroke-width="1"/>
<line x1="72" y1="112.0" x2="792" y2="112.0" stroke="#d8dfd2" stroke-width="1"/>
<line x1="72" y1="28.0" x2="792" y2="28.0" stroke="#d8dfd2" stroke-width="1"/>
<line x1="72.0" y1="28" x2="72.0" y2="364" stroke="#eef2ea" stroke-width="1"/>
<line x1="252.0" y1="28" x2="252.0" y2="364" stroke="#eef2ea" stroke-width="1"/>
<line x1="432.0" y1="28" x2="432.0" y2="364" stroke="#eef2ea" stroke-width="1"/>
<line x1="612.0" y1="28" x2="612.0" y2="364" stroke="#eef2ea" stroke-width="1"/>
<line x1="792.0" y1="28" x2="792.0" y2="364" stroke="#eef2ea" stroke-width="1"/>
<line x1="72" y1="364" x2="792" y2="364" stroke="#31473a" stroke-width="2"/>
<line x1="72" y1="28" x2="72" y2="364" stroke="#31473a" stroke-width="2"/>
<polyline fill="none" stroke="#b56a2d" stroke-width="3" stroke-linejoin="round" stroke-linecap="round" points="72.0,28.0 108.0,94.4 144.0,147.6 180.0,190.3 216.0,224.6 252.0,252.2 288.0,274.2 324.0,292.0 360.0,306.2 396.0,317.6 432.0,326.8 468.0,334.1 504.0,340.0 540.0,344.8 576.0,348.6 612.0,351.6 648.0,354.1 684.0,356.0 720.0,357.6 756.0,358.9 792.0,359.9"/>
<polyline fill="none" stroke="#0f766e" stroke-width="4" stroke-linejoin="round" stroke-linecap="round" points="72.0,28.0 108.0,322.7 144.0,358.9 180.0,363.4 216.0,363.9 252.0,364.0 288.0,364.0 324.0,364.0 360.0,364.0 396.0,364.0 432.0,364.0 468.0,364.0 504.0,364.0 540.0,364.0 576.0,364.0 612.0,364.0 648.0,364.0 684.0,364.0 720.0,364.0 756.0,364.0 792.0,364.0"/>
<circle cx="72.0" cy="28.0" r="4" fill="#0f766e"/>
<circle cx="108.0" cy="322.7" r="4" fill="#0f766e"/>
<circle cx="144.0" cy="358.9" r="4" fill="#0f766e"/>
<circle cx="180.0" cy="363.4" r="4" fill="#0f766e"/>
<circle cx="216.0" cy="363.9" r="4" fill="#0f766e"/>
<circle cx="252.0" cy="364.0" r="4" fill="#0f766e"/>
<text x="410" y="20" text-anchor="middle" font-family="IBM Plex Sans, sans-serif" font-size="18" fill="#223127">Baseline LQR execution liquidates inventory quickly</text>
<text x="410.0" y="408" text-anchor="middle" font-family="IBM Plex Sans, sans-serif" font-size="15" fill="#31473a">Execution step k</text>
<text x="18" y="210.0" text-anchor="middle" font-family="IBM Plex Sans, sans-serif" font-size="15" fill="#31473a" transform="rotate(-90 18 210.0)">Remaining inventory</text>
<text x="72.0" y="388" text-anchor="middle" font-family="IBM Plex Sans, sans-serif" font-size="13" fill="#4b5d51">0</text>
<text x="252.0" y="388" text-anchor="middle" font-family="IBM Plex Sans, sans-serif" font-size="13" fill="#4b5d51">5</text>
<text x="432.0" y="388" text-anchor="middle" font-family="IBM Plex Sans, sans-serif" font-size="13" fill="#4b5d51">10</text>
<text x="612.0" y="388" text-anchor="middle" font-family="IBM Plex Sans, sans-serif" font-size="13" fill="#4b5d51">15</text>
<text x="792.0" y="388" text-anchor="middle" font-family="IBM Plex Sans, sans-serif" font-size="13" fill="#4b5d51">20</text>
<text x="62" y="368.0" text-anchor="end" font-family="IBM Plex Sans, sans-serif" font-size="13" fill="#4b5d51">0.00</text>
<text x="62" y="284.0" text-anchor="end" font-family="IBM Plex Sans, sans-serif" font-size="13" fill="#4b5d51">0.25</text>
<text x="62" y="200.0" text-anchor="end" font-family="IBM Plex Sans, sans-serif" font-size="13" fill="#4b5d51">0.50</text>
<text x="62" y="116.0" text-anchor="end" font-family="IBM Plex Sans, sans-serif" font-size="13" fill="#4b5d51">0.75</text>
<text x="62" y="32.0" text-anchor="end" font-family="IBM Plex Sans, sans-serif" font-size="13" fill="#4b5d51">1.00</text>
<rect x="470" y="52" width="18" height="4" rx="2" fill="#0f766e"/>
<text x="496" y="59" font-family="IBM Plex Sans, sans-serif" font-size="13" fill="#31473a">LQR inventory path</text>
<rect x="620" y="52" width="18" height="4" rx="2" fill="#b56a2d"/>
<text x="646" y="59" font-family="IBM Plex Sans, sans-serif" font-size="13" fill="#31473a">reference urgency</text>
</svg>
