<?xml version="1.0" encoding="utf-8" standalone="no"?>
<!DOCTYPE svg PUBLIC "-//W3C//DTD SVG 1.1//EN"
  "http://www.w3.org/Graphics/SVG/1.1/DTD/svg11.dtd">
<svg xmlns:xlink="http://www.w3.org/1999/xlink" width="648pt" height="576pt" viewBox="0 0 648 576" xmlns="http://www.w3.org/2000/svg" version="1.1">
 <metadata>
  <rdf:RDF xmlns:dc="http://purl.org/dc/elements/1.1/" xmlns:cc="http://creativecommons.org/ns#" xmlns:rdf="http://www.w3.org/1999/02/22-rdf-syntax-ns#">
   <cc:Work>
    <dc:type rdf:resource="http://purl.org/dc/dcmitype/StillImage"/>
    <dc:date>2026-04-18T19:59:23.156931</dc:date>
    <dc:format>image/svg+xml</dc:format>
    <dc:creator>
     <cc:Agent>
      <dc:title>Matplotlib v3.10.8, https://matplotlib.org/</dc:title>
     </cc:Agent>
    </dc:creator>
   </cc:Work>
  </rdf:RDF>
 </metadata>
 <defs>
  <style type="text/css">*{stroke-linejoin: round; stroke-linecap: butt}</style>
 </defs>
 <g id="figure_1">
  <g id="patch_1">
   <path d="M 0 576 
L 648 576 
L 648 0 
L 0 0 
z
" style="fill: #ffffff"/>
  </g>
  <g id="axes_1">
   <g id="patch_2">
    <path d="M 54.323678 186.626427 
L 644.99976 186.626427 
L 644.99976 18.118365 
L 54.323678 18.118365 
z
" style="fill: #ffffff"/>
   </g>
   <g id="matplotlib.axis_1">
    <g id="xtick_1">
     <g id="line2d_1">
      <defs>
       <path id="m4c2cc3e2f6" d="M 0 0 
L 0 3.5 
" style="stroke: #000000; stroke-width: 0.8"/>
      </defs>
      <g>
       <use xlink:href="#m4c2cc3e2f6" x="81.17259" y="186.626427" style="stroke: #000000; stroke-width: 0.8"/>
      </g>
     </g>
    </g>
    <g id="xtick_2">
     <g id="line2d_2">
      <g>
       <use xlink:href="#m4c2cc3e2f6" x="173.755048" y="186.626427" style="stroke: #000000; stroke-width: 0.8"/>
      </g>
     </g>
    </g>
    <g id="xtick_3">
     <g id="line2d_3">
      <g>
       <use xlink:href="#m4c2cc3e2f6" x="266.337506" y="186.626427" style="stroke: #000000; stroke-width: 0.8"/>
      </g>
     </g>
    </g>
    <g id="xtick_4">
     <g id="line2d_4">
      <g>
       <use xlink:href="#m4c2cc3e2f6" x="358.919965" y="186.626427" style="stroke: #000000; stroke-width: 0.8"/>
      </g>
     </g>
    </g>
    <g id="xtick_5">
     <g id="line2d_5">
      <g>
       <use xlink:href="#m4c2cc3e2f6" x="451.502423" y="186.626427" style="stroke: #000000; stroke-width: 0.8"/>
      </g>
     </g>
    </g>
    <g id="xtick_6">
     <g id="line2d_6">
      <g>
       <use xlink:href="#m4c2cc3e2f6" x="544.084881" y="186.626427" style="stroke: #000000; stroke-width: 0.8"/>
      </g>
     </g>
    </g>
    <g id="xtick_7">
     <g id="line2d_7">
      <g>
       <use xlink:href="#m4c2cc3e2f6" x="636.667339" y="186.626427" style="stroke: #000000; stroke-width: 0.8"/>
      </g>
     </g>
    </g>
   </g>
   <g id="matplotlib.axis_2">
    <g id="ytick_1">
     <g id="line2d_8">
      <defs>
       <path id="m62fa60d3c7" d="M 0 0 
L -3.5 0 
" style="stroke: #000000; stroke-width: 0.8"/>
      </defs>
      <g>
       <use xlink:href="#m62fa60d3c7" x="54.323678" y="172.424504" style="stroke: #000000; stroke-width: 0.8"/>
      </g>
     </g>
     <g id="text_1">
      <!-- 0.00 -->
      <g transform="translate(25.058053 176.223723) scale(0.1 -0.1)">
       <defs>
        <path id="DejaVuSans-30" d="M 2034 4250 
Q 1547 4250 1301 3770 
Q 1056 3291 1056 2328 
Q 1056 1369 1301 889 
Q 1547 409 2034 409 
Q 2525 409 2770 889 
Q 3016 1369 3016 2328 
Q 3016 3291 2770 3770 
Q 2525 4250 2034 4250 
z
M 2034 4750 
Q 2819 4750 3233 4129 
Q 3647 3509 3647 2328 
Q 3647 1150 3233 529 
Q 2819 -91 2034 -91 
Q 1250 -91 836 529 
Q 422 1150 422 2328 
Q 422 3509 836 4129 
Q 1250 4750 2034 4750 
z
" transform="scale(0.015625)"/>
        <path id="DejaVuSans-2e" d="M 684 794 
L 1344 794 
L 1344 0 
L 684 0 
L 684 794 
z
" transform="scale(0.015625)"/>
       </defs>
       <use xlink:href="#DejaVuSans-30"/>
       <use xlink:href="#DejaVuSans-2e" transform="translate(63.623047 0)"/>
       <use xlink:href="#DejaVuSans-30" transform="translate(95.410156 0)"/>
       <use xlink:href="#DejaVuSans-30" transform="translate(159.033203 0)"/>
      </g>
     </g>
    </g>
    <g id="ytick_2">
     <g id="line2d_9">
      <g>
       <use xlink:href="#m62fa60d3c7" x="54.323678" y="141.697234" style="stroke: #000000; stroke-width: 0.8"/>
      </g>
     </g>
     <g id="text_2">
      <!-- 0.05 -->
      <g transform="translate(25.058053 145.496453) scale(0.1 -0.1)">
       <defs>
        <path id="DejaVuSans-35" d="M 691 4666 
L 3169 4666 
L 3169 4134 
L 1269 4134 
L 1269 2991 
Q 1406 3038 1543 3061 
Q 1681 3084 1819 3084 
Q 2600 3084 3056 2656 
Q 3513 2228 3513 1497 
Q 3513 744 3044 326 
Q 2575 -91 1722 -91 
Q 1428 -91 1123 -41 
Q 819 9 494 109 
L 494 744 
Q 775 591 1075 516 
Q 1375 441 1709 441 
Q 2250 441 2565 725 
Q 2881 1009 2881 1497 
Q 2881 1984 2565 2268 
Q 2250 2553 1709 2553 
Q 1456 2553 1204 2497 
Q 953 2441 691 2322 
L 691 4666 
z
" transform="scale(0.015625)"/>
       </defs>
       <use xlink:href="#DejaVuSans-30"/>
       <use xlink:href="#DejaVuSans-2e" transform="translate(63.623047 0)"/>
       <use xlink:href="#DejaVuSans-30" transform="translate(95.410156 0)"/>
       <use xlink:href="#DejaVuSans-35" transform="translate(159.033203 0)"/>
      </g>
     </g>
    </g>
    <g id="ytick_3">
     <g id="line2d_10">
      <g>
       <use xlink:href="#m62fa60d3c7" x="54.323678" y="110.969964" style="stroke: #000000; stroke-width: 0.8"/>
      </g>
     </g>
     <g id="text_3">
      <!-- 0.10 -->
      <g transform="translate(25.058053 114.769183) scale(0.1 -0.1)">
       <defs>
        <path id="DejaVuSans-31" d="M 794 531 
L 1825 531 
L 1825 4091 
L 703 3866 
L 703 4441 
L 1819 4666 
L 2450 4666 
L 2450 531 
L 3481 531 
L 3481 0 
L 794 0 
L 794 531 
z
" transform="scale(0.015625)"/>
       </defs>
       <use xlink:href="#DejaVuSans-30"/>
       <use xlink:href="#DejaVuSans-2e" transform="translate(63.623047 0)"/>
       <use xlink:href="#DejaVuSans-31" transform="translate(95.410156 0)"/>
       <use xlink:href="#DejaVuSans-30" transform="translate(159.033203 0)"/>
      </g>
     </g>
    </g>
    <g id="ytick_4">
     <g id="line2d_11">
      <g>
       <use xlink:href="#m62fa60d3c7" x="54.323678" y="80.242695" style="stroke: #000000; stroke-width: 0.8"/>
      </g>
     </g>
     <g id="text_4">
      <!-- 0.15 -->
      <g transform="translate(25.058053 84.041913) scale(0.1 -0.1)">
       <use xlink:href="#DejaVuSans-30"/>
       <use xlink:href="#DejaVuSans-2e" transform="translate(63.623047 0)"/>
       <use xlink:href="#DejaVuSans-31" transform="translate(95.410156 0)"/>
       <use xlink:href="#DejaVuSans-35" transform="translate(159.033203 0)"/>
      </g>
     </g>
    </g>
    <g id="ytick_5">
     <g id="line2d_12">
      <g>
       <use xlink:href="#m62fa60d3c7" x="54.323678" y="49.515425" style="stroke: #000000; stroke-width: 0.8"/>
      </g>
     </g>
     <g id="text_5">
      <!-- 0.20 -->
      <g transform="translate(25.058053 53.314644) scale(0.1 -0.1)">
       <defs>
        <path id="DejaVuSans-32" d="M 1228 531 
L 3431 531 
L 3431 0 
L 469 0 
L 469 531 
Q 828 903 1448 1529 
Q 2069 2156 2228 2338 
Q 2531 2678 2651 2914 
Q 2772 3150 2772 3378 
Q 2772 3750 2511 3984 
Q 2250 4219 1831 4219 
Q 1534 4219 1204 4116 
Q 875 4013 500 3803 
L 500 4441 
Q 881 4594 1212 4672 
Q 1544 4750 1819 4750 
Q 2544 4750 2975 4387 
Q 3406 4025 3406 3419 
Q 3406 3131 3298 2873 
Q 3191 2616 2906 2266 
Q 2828 2175 2409 1742 
Q 1991 1309 1228 531 
z
" transform="scale(0.015625)"/>
       </defs>
       <use xlink:href="#DejaVuSans-30"/>
       <use xlink:href="#DejaVuSans-2e" transform="translate(63.623047 0)"/>
       <use xlink:href="#DejaVuSans-32" transform="translate(95.410156 0)"/>
       <use xlink:href="#DejaVuSans-30" transform="translate(159.033203 0)"/>
      </g>
     </g>
    </g>
    <g id="ytick_6">
     <g id="line2d_13">
      <g>
       <use xlink:href="#m62fa60d3c7" x="54.323678" y="18.788155" style="stroke: #000000; stroke-width: 0.8"/>
      </g>
     </g>
     <g id="text_6">
      <!-- 0.25 -->
      <g transform="translate(25.058053 22.587374) scale(0.1 -0.1)">
       <use xlink:href="#DejaVuSans-30"/>
       <use xlink:href="#DejaVuSans-2e" transform="translate(63.623047 0)"/>
       <use xlink:href="#DejaVuSans-32" transform="translate(95.410156 0)"/>
       <use xlink:href="#DejaVuSans-35" transform="translate(159.033203 0)"/>
      </g>
     </g>
    </g>
    <g id="text_7">
     <!-- force -->
     <g transform="translate(18.978365 114.960677) rotate(-90) scale(0.1 -0.1)">
      <defs>
       <path id="DejaVuSans-66" d="M 2375 4863 
L 2375 4384 
L 1825 4384 
Q 1516 4384 1395 4259 
Q 1275 4134 1275 3809 
L 1275 3500 
L 2222 3500 
L 2222 3053 
L 1275 3053 
L 1275 0 
L 697 0 
L 697 3053 
L 147 3053 
L 147 3500 
L 697 3500 
L 697 3744 
Q 697 4328 969 4595 
Q 1241 4863 1831 4863 
L 2375 4863 
z
" transform="scale(0.015625)"/>
       <path id="DejaVuSans-6f" d="M 1959 3097 
Q 1497 3097 1228 2736 
Q 959 2375 959 1747 
Q 959 1119 1226 758 
Q 1494 397 1959 397 
Q 2419 397 2687 759 
Q 2956 1122 2956 1747 
Q 2956 2369 2687 2733 
Q 2419 3097 1959 3097 
z
M 1959 3584 
Q 2709 3584 3137 3096 
Q 3566 2609 3566 1747 
Q 3566 888 3137 398 
Q 2709 -91 1959 -91 
Q 1206 -91 779 398 
Q 353 888 353 1747 
Q 353 2609 779 3096 
Q 1206 3584 1959 3584 
z
" transform="scale(0.015625)"/>
       <path id="DejaVuSans-72" d="M 2631 2963 
Q 2534 3019 2420 3045 
Q 2306 3072 2169 3072 
Q 1681 3072 1420 2755 
Q 1159 2438 1159 1844 
L 1159 0 
L 581 0 
L 581 3500 
L 1159 3500 
L 1159 2956 
Q 1341 3275 1631 3429 
Q 1922 3584 2338 3584 
Q 2397 3584 2469 3576 
Q 2541 3569 2628 3553 
L 2631 2963 
z
" transform="scale(0.015625)"/>
       <path id="DejaVuSans-63" d="M 3122 3366 
L 3122 2828 
Q 2878 2963 2633 3030 
Q 2388 3097 2138 3097 
Q 1578 3097 1268 2742 
Q 959 2388 959 1747 
Q 959 1106 1268 751 
Q 1578 397 2138 397 
Q 2388 397 2633 464 
Q 2878 531 3122 666 
L 3122 134 
Q 2881 22 2623 -34 
Q 2366 -91 2075 -91 
Q 1284 -91 818 406 
Q 353 903 353 1747 
Q 353 2603 823 3093 
Q 1294 3584 2113 3584 
Q 2378 3584 2631 3529 
Q 2884 3475 3122 3366 
z
" transform="scale(0.015625)"/>
       <path id="DejaVuSans-65" d="M 3597 1894 
L 3597 1613 
L 953 1613 
Q 991 1019 1311 708 
Q 1631 397 2203 397 
Q 2534 397 2845 478 
Q 3156 559 3463 722 
L 3463 178 
Q 3153 47 2828 -22 
Q 2503 -91 2169 -91 
Q 1331 -91 842 396 
Q 353 884 353 1716 
Q 353 2575 817 3079 
Q 1281 3584 2069 3584 
Q 2775 3584 3186 3129 
Q 3597 2675 3597 1894 
z
M 3022 2063 
Q 3016 2534 2758 2815 
Q 2500 3097 2075 3097 
Q 1594 3097 1305 2825 
Q 1016 2553 972 2059 
L 3022 2063 
z
" transform="scale(0.015625)"/>
      </defs>
      <use xlink:href="#DejaVuSans-66"/>
      <use xlink:href="#DejaVuSans-6f" transform="translate(35.205078 0)"/>
      <use xlink:href="#DejaVuSans-72" transform="translate(96.386719 0)"/>
      <use xlink:href="#DejaVuSans-63" transform="translate(135.25 0)"/>
      <use xlink:href="#DejaVuSans-65" transform="translate(190.230469 0)"/>
     </g>
    </g>
   </g>
   <g id="line2d_14">
    <path d="M 81.17259 123.260872 
L 99.689082 111.191739 
L 118.205574 99.417851 
L 136.722065 88.083548 
L 155.238557 77.329197 
L 173.755048 67.289481 
L 192.27154 58.091762 
L 210.788032 49.85452 
L 229.304523 42.685901 
L 247.821015 36.682382 
L 266.337506 31.927574 
L 284.853998 28.491183 
L 303.37049 26.428124 
L 321.886981 25.777822 
L 340.403473 26.563689 
L 358.919965 28.792793 
L 377.436456 32.455726 
L 395.952948 37.52666 
L 414.469439 43.963609 
L 432.985931 51.708873 
L 451.502423 60.689678 
L 470.018914 70.81899 
L 488.535406 81.996504 
L 507.051897 94.109789 
L 525.568389 107.035579 
L 544.084881 120.641191 
L 562.601372 134.78606 
L 581.117864 149.323363 
L 599.634356 164.101724 
L 618.150847 178.966969 
" clip-path="url(#p2f2f826fff)" style="fill: none; stroke: #0f766e; stroke-width: 2; stroke-linecap: square"/>
   </g>
   <g id="patch_3">
    <path d="M 54.323678 186.626427 
L 54.323678 18.118365 
" style="fill: none; stroke: #000000; stroke-width: 0.8; stroke-linejoin: miter; stroke-linecap: square"/>
   </g>
   <g id="patch_4">
    <path d="M 644.99976 186.626427 
L 644.99976 18.118365 
" style="fill: none; stroke: #000000; stroke-width: 0.8; stroke-linejoin: miter; stroke-linecap: square"/>
   </g>
   <g id="patch_5">
    <path d="M 54.323678 186.626427 
L 644.99976 186.626427 
" style="fill: none; stroke: #000000; stroke-width: 0.8; stroke-linejoin: miter; stroke-linecap: square"/>
   </g>
   <g id="patch_6">
    <path d="M 54.323678 18.118365 
L 644.99976 18.118365 
" style="fill: none; stroke: #000000; stroke-width: 0.8; stroke-linejoin: miter; stroke-linecap: square"/>
   </g>
   <g id="text_8">
    <!-- Structured nonlinear estimation -->
    <g transform="translate(254.032969 12.118365) scale(0.12 -0.12)">
     <defs>
      <path id="DejaVuSans-53" d="M 3425 4513 
L 3425 3897 
Q 3066 4069 2747 4153 
Q 2428 4238 2131 4238 
Q 1616 4238 1336 4038 
Q 1056 3838 1056 3469 
Q 1056 3159 1242 3001 
Q 1428 2844 1947 2747 
L 2328 2669 
Q 3034 2534 3370 2195 
Q 3706 1856 3706 1288 
Q 3706 609 3251 259 
Q 2797 -91 1919 -91 
Q 1588 -91 1214 -16 
Q 841 59 441 206 
L 441 856 
Q 825 641 1194 531 
Q 1563 422 1919 422 
Q 2459 422 2753 634 
Q 3047 847 3047 1241 
Q 3047 1584 2836 1778 
Q 2625 1972 2144 2069 
L 1759 2144 
Q 1053 2284 737 2584 
Q 422 2884 422 3419 
Q 422 4038 858 4394 
Q 1294 4750 2059 4750 
Q 2388 4750 2728 4690 
Q 3069 4631 3425 4513 
z
" transform="scale(0.015625)"/>
      <path id="DejaVuSans-74" d="M 1172 4494 
L 1172 3500 
L 2356 3500 
L 2356 3053 
L 1172 3053 
L 1172 1153 
Q 1172 725 1289 603 
Q 1406 481 1766 481 
L 2356 481 
L 2356 0 
L 1766 0 
Q 1100 0 847 248 
Q 594 497 594 1153 
L 594 3053 
L 172 3053 
L 172 3500 
L 594 3500 
L 594 4494 
L 1172 4494 
z
" transform="scale(0.015625)"/>
      <path id="DejaVuSans-75" d="M 544 1381 
L 544 3500 
L 1119 3500 
L 1119 1403 
Q 1119 906 1312 657 
Q 1506 409 1894 409 
Q 2359 409 2629 706 
Q 2900 1003 2900 1516 
L 2900 3500 
L 3475 3500 
L 3475 0 
L 2900 0 
L 2900 538 
Q 2691 219 2414 64 
Q 2138 -91 1772 -91 
Q 1169 -91 856 284 
Q 544 659 544 1381 
z
M 1991 3584 
L 1991 3584 
z
" transform="scale(0.015625)"/>
      <path id="DejaVuSans-64" d="M 2906 2969 
L 2906 4863 
L 3481 4863 
L 3481 0 
L 2906 0 
L 2906 525 
Q 2725 213 2448 61 
Q 2172 -91 1784 -91 
Q 1150 -91 751 415 
Q 353 922 353 1747 
Q 353 2572 751 3078 
Q 1150 3584 1784 3584 
Q 2172 3584 2448 3432 
Q 2725 3281 2906 2969 
z
M 947 1747 
Q 947 1113 1208 752 
Q 1469 391 1925 391 
Q 2381 391 2643 752 
Q 2906 1113 2906 1747 
Q 2906 2381 2643 2742 
Q 2381 3103 1925 3103 
Q 1469 3103 1208 2742 
Q 947 2381 947 1747 
z
" transform="scale(0.015625)"/>
      <path id="DejaVuSans-20" transform="scale(0.015625)"/>
      <path id="DejaVuSans-6e" d="M 3513 2113 
L 3513 0 
L 2938 0 
L 2938 2094 
Q 2938 2591 2744 2837 
Q 2550 3084 2163 3084 
Q 1697 3084 1428 2787 
Q 1159 2491 1159 1978 
L 1159 0 
L 581 0 
L 581 3500 
L 1159 3500 
L 1159 2956 
Q 1366 3272 1645 3428 
Q 1925 3584 2291 3584 
Q 2894 3584 3203 3211 
Q 3513 2838 3513 2113 
z
" transform="scale(0.015625)"/>
      <path id="DejaVuSans-6c" d="M 603 4863 
L 1178 4863 
L 1178 0 
L 603 0 
L 603 4863 
z
" transform="scale(0.015625)"/>
      <path id="DejaVuSans-69" d="M 603 3500 
L 1178 3500 
L 1178 0 
L 603 0 
L 603 3500 
z
M 603 4863 
L 1178 4863 
L 1178 4134 
L 603 4134 
L 603 4863 
z
" transform="scale(0.015625)"/>
      <path id="DejaVuSans-61" d="M 2194 1759 
Q 1497 1759 1228 1600 
Q 959 1441 959 1056 
Q 959 750 1161 570 
Q 1363 391 1709 391 
Q 2188 391 2477 730 
Q 2766 1069 2766 1631 
L 2766 1759 
L 2194 1759 
z
M 3341 1997 
L 3341 0 
L 2766 0 
L 2766 531 
Q 2569 213 2275 61 
Q 1981 -91 1556 -91 
Q 1019 -91 701 211 
Q 384 513 384 1019 
Q 384 1609 779 1909 
Q 1175 2209 1959 2209 
L 2766 2209 
L 2766 2266 
Q 2766 2663 2505 2880 
Q 2244 3097 1772 3097 
Q 1472 3097 1187 3025 
Q 903 2953 641 2809 
L 641 3341 
Q 956 3463 1253 3523 
Q 1550 3584 1831 3584 
Q 2591 3584 2966 3190 
Q 3341 2797 3341 1997 
z
" transform="scale(0.015625)"/>
      <path id="DejaVuSans-73" d="M 2834 3397 
L 2834 2853 
Q 2591 2978 2328 3040 
Q 2066 3103 1784 3103 
Q 1356 3103 1142 2972 
Q 928 2841 928 2578 
Q 928 2378 1081 2264 
Q 1234 2150 1697 2047 
L 1894 2003 
Q 2506 1872 2764 1633 
Q 3022 1394 3022 966 
Q 3022 478 2636 193 
Q 2250 -91 1575 -91 
Q 1294 -91 989 -36 
Q 684 19 347 128 
L 347 722 
Q 666 556 975 473 
Q 1284 391 1588 391 
Q 1994 391 2212 530 
Q 2431 669 2431 922 
Q 2431 1156 2273 1281 
Q 2116 1406 1581 1522 
L 1381 1569 
Q 847 1681 609 1914 
Q 372 2147 372 2553 
Q 372 3047 722 3315 
Q 1072 3584 1716 3584 
Q 2034 3584 2315 3537 
Q 2597 3491 2834 3397 
z
" transform="scale(0.015625)"/>
      <path id="DejaVuSans-6d" d="M 3328 2828 
Q 3544 3216 3844 3400 
Q 4144 3584 4550 3584 
Q 5097 3584 5394 3201 
Q 5691 2819 5691 2113 
L 5691 0 
L 5113 0 
L 5113 2094 
Q 5113 2597 4934 2840 
Q 4756 3084 4391 3084 
Q 3944 3084 3684 2787 
Q 3425 2491 3425 1978 
L 3425 0 
L 2847 0 
L 2847 2094 
Q 2847 2600 2669 2842 
Q 2491 3084 2119 3084 
Q 1678 3084 1418 2786 
Q 1159 2488 1159 1978 
L 1159 0 
L 581 0 
L 581 3500 
L 1159 3500 
L 1159 2956 
Q 1356 3278 1631 3431 
Q 1906 3584 2284 3584 
Q 2666 3584 2933 3390 
Q 3200 3197 3328 2828 
z
" transform="scale(0.015625)"/>
     </defs>
     <use xlink:href="#DejaVuSans-53"/>
     <use xlink:href="#DejaVuSans-74" transform="translate(63.476562 0)"/>
     <use xlink:href="#DejaVuSans-72" transform="translate(102.685547 0)"/>
     <use xlink:href="#DejaVuSans-75" transform="translate(143.798828 0)"/>
     <use xlink:href="#DejaVuSans-63" transform="translate(207.177734 0)"/>
     <use xlink:href="#DejaVuSans-74" transform="translate(262.158203 0)"/>
     <use xlink:href="#DejaVuSans-75" transform="translate(301.367188 0)"/>
     <use xlink:href="#DejaVuSans-72" transform="translate(364.746094 0)"/>
     <use xlink:href="#DejaVuSans-65" transform="translate(403.609375 0)"/>
     <use xlink:href="#DejaVuSans-64" transform="translate(465.132812 0)"/>
     <use xlink:href="#DejaVuSans-20" transform="translate(528.609375 0)"/>
     <use xlink:href="#DejaVuSans-6e" transform="translate(560.396484 0)"/>
     <use xlink:href="#DejaVuSans-6f" transform="translate(623.775391 0)"/>
     <use xlink:href="#DejaVuSans-6e" transform="translate(684.957031 0)"/>
     <use xlink:href="#DejaVuSans-6c" transform="translate(748.335938 0)"/>
     <use xlink:href="#DejaVuSans-69" transform="translate(776.119141 0)"/>
     <use xlink:href="#DejaVuSans-6e" transform="translate(803.902344 0)"/>
     <use xlink:href="#DejaVuSans-65" transform="translate(867.28125 0)"/>
     <use xlink:href="#DejaVuSans-61" transform="translate(928.804688 0)"/>
     <use xlink:href="#DejaVuSans-72" transform="translate(990.083984 0)"/>
     <use xlink:href="#DejaVuSans-20" transform="translate(1031.197266 0)"/>
     <use xlink:href="#DejaVuSans-65" transform="translate(1062.984375 0)"/>
     <use xlink:href="#DejaVuSans-73" transform="translate(1124.507812 0)"/>
     <use xlink:href="#DejaVuSans-74" transform="translate(1176.607422 0)"/>
     <use xlink:href="#DejaVuSans-69" transform="translate(1215.816406 0)"/>
     <use xlink:href="#DejaVuSans-6d" transform="translate(1243.599609 0)"/>
     <use xlink:href="#DejaVuSans-61" transform="translate(1341.011719 0)"/>
     <use xlink:href="#DejaVuSans-74" transform="translate(1402.291016 0)"/>
     <use xlink:href="#DejaVuSans-69" transform="translate(1441.5 0)"/>
     <use xlink:href="#DejaVuSans-6f" transform="translate(1469.283203 0)"/>
     <use xlink:href="#DejaVuSans-6e" transform="translate(1530.464844 0)"/>
    </g>
   </g>
  </g>
  <g id="axes_2">
   <g id="patch_7">
    <path d="M 54.323678 364.634968 
L 644.99976 364.634968 
L 644.99976 196.126907 
L 54.323678 196.126907 
z
" style="fill: #ffffff"/>
   </g>
   <g id="PathCollection_1">
    <defs>
     <path id="mccbba96a9c" d="M 0 1.870829 
C 0.49615 1.870829 0.972045 1.673706 1.322876 1.322876 
C 1.673706 0.972045 1.870829 0.49615 1.870829 0 
C 1.870829 -0.49615 1.673706 -0.972045 1.322876 -1.322876 
C 0.972045 -1.673706 0.49615 -1.870829 0 -1.870829 
C -0.49615 -1.870829 -0.972045 -1.673706 -1.322876 -1.322876 
C -1.673706 -0.972045 -1.870829 -0.49615 -1.870829 0 
C -1.870829 0.49615 -1.673706 0.972045 -1.322876 1.322876 
C -0.972045 1.673706 -0.49615 1.870829 0 1.870829 
z
" style="stroke: #d97706; stroke-opacity: 0.65"/>
    </defs>
    <g clip-path="url(#p350e155453)">
     <use xlink:href="#mccbba96a9c" x="81.17259" y="206.049319" style="fill: #d97706; fill-opacity: 0.65; stroke: #d97706; stroke-opacity: 0.65"/>
     <use xlink:href="#mccbba96a9c" x="99.689082" y="210.801113" style="fill: #d97706; fill-opacity: 0.65; stroke: #d97706; stroke-opacity: 0.65"/>
     <use xlink:href="#mccbba96a9c" x="118.205574" y="212.870828" style="fill: #d97706; fill-opacity: 0.65; stroke: #d97706; stroke-opacity: 0.65"/>
     <use xlink:href="#mccbba96a9c" x="136.722065" y="218.667837" style="fill: #d97706; fill-opacity: 0.65; stroke: #d97706; stroke-opacity: 0.65"/>
     <use xlink:href="#mccbba96a9c" x="155.238557" y="215.45119" style="fill: #d97706; fill-opacity: 0.65; stroke: #d97706; stroke-opacity: 0.65"/>
     <use xlink:href="#mccbba96a9c" x="173.755048" y="220.250135" style="fill: #d97706; fill-opacity: 0.65; stroke: #d97706; stroke-opacity: 0.65"/>
     <use xlink:href="#mccbba96a9c" x="192.27154" y="226.278338" style="fill: #d97706; fill-opacity: 0.65; stroke: #d97706; stroke-opacity: 0.65"/>
     <use xlink:href="#mccbba96a9c" x="210.788032" y="234.086442" style="fill: #d97706; fill-opacity: 0.65; stroke: #d97706; stroke-opacity: 0.65"/>
     <use xlink:href="#mccbba96a9c" x="229.304523" y="243.577721" style="fill: #d97706; fill-opacity: 0.65; stroke: #d97706; stroke-opacity: 0.65"/>
     <use xlink:href="#mccbba96a9c" x="247.821015" y="249.2101" style="fill: #d97706; fill-opacity: 0.65; stroke: #d97706; stroke-opacity: 0.65"/>
     <use xlink:href="#mccbba96a9c" x="266.337506" y="258.149201" style="fill: #d97706; fill-opacity: 0.65; stroke: #d97706; stroke-opacity: 0.65"/>
     <use xlink:href="#mccbba96a9c" x="284.853998" y="265.855834" style="fill: #d97706; fill-opacity: 0.65; stroke: #d97706; stroke-opacity: 0.65"/>
     <use xlink:href="#mccbba96a9c" x="303.37049" y="281.083045" style="fill: #d97706; fill-opacity: 0.65; stroke: #d97706; stroke-opacity: 0.65"/>
     <use xlink:href="#mccbba96a9c" x="321.886981" y="289.422088" style="fill: #d97706; fill-opacity: 0.65; stroke: #d97706; stroke-opacity: 0.65"/>
     <use xlink:href="#mccbba96a9c" x="340.403473" y="289.100191" style="fill: #d97706; fill-opacity: 0.65; stroke: #d97706; stroke-opacity: 0.65"/>
     <use xlink:href="#mccbba96a9c" x="358.919965" y="291.282543" style="fill: #d97706; fill-opacity: 0.65; stroke: #d97706; stroke-opacity: 0.65"/>
     <use xlink:href="#mccbba96a9c" x="377.436456" y="298.19207" style="fill: #d97706; fill-opacity: 0.65; stroke: #d97706; stroke-opacity: 0.65"/>
     <use xlink:href="#mccbba96a9c" x="395.952948" y="316.132991" style="fill: #d97706; fill-opacity: 0.65; stroke: #d97706; stroke-opacity: 0.65"/>
     <use xlink:href="#mccbba96a9c" x="414.469439" y="314.443438" style="fill: #d97706; fill-opacity: 0.65; stroke: #d97706; stroke-opacity: 0.65"/>
     <use xlink:href="#mccbba96a9c" x="432.985931" y="322.114577" style="fill: #d97706; fill-opacity: 0.65; stroke: #d97706; stroke-opacity: 0.65"/>
     <use xlink:href="#mccbba96a9c" x="451.502423" y="327.771316" style="fill: #d97706; fill-opacity: 0.65; stroke: #d97706; stroke-opacity: 0.65"/>
     <use xlink:href="#mccbba96a9c" x="470.018914" y="328.090991" style="fill: #d97706; fill-opacity: 0.65; stroke: #d97706; stroke-opacity: 0.65"/>
     <use xlink:href="#mccbba96a9c" x="488.535406" y="338.269359" style="fill: #d97706; fill-opacity: 0.65; stroke: #d97706; stroke-opacity: 0.65"/>
     <use xlink:href="#mccbba96a9c" x="507.051897" y="337.976127" style="fill: #d97706; fill-opacity: 0.65; stroke: #d97706; stroke-opacity: 0.65"/>
     <use xlink:href="#mccbba96a9c" x="525.568389" y="356.975511" style="fill: #d97706; fill-opacity: 0.65; stroke: #d97706; stroke-opacity: 0.65"/>
     <use xlink:href="#mccbba96a9c" x="544.084881" y="340.284536" style="fill: #d97706; fill-opacity: 0.65; stroke: #d97706; stroke-opacity: 0.65"/>
     <use xlink:href="#mccbba96a9c" x="562.601372" y="339.455646" style="fill: #d97706; fill-opacity: 0.65; stroke: #d97706; stroke-opacity: 0.65"/>
     <use xlink:href="#mccbba96a9c" x="581.117864" y="344.577956" style="fill: #d97706; fill-opacity: 0.65; stroke: #d97706; stroke-opacity: 0.65"/>
     <use xlink:href="#mccbba96a9c" x="599.634356" y="349.181098" style="fill: #d97706; fill-opacity: 0.65; stroke: #d97706; stroke-opacity: 0.65"/>
     <use xlink:href="#mccbba96a9c" x="618.150847" y="341.389658" style="fill: #d97706; fill-opacity: 0.65; stroke: #d97706; stroke-opacity: 0.65"/>
    </g>
   </g>
   <g id="matplotlib.axis_3">
    <g id="xtick_8">
     <g id="line2d_15">
      <g>
       <use xlink:href="#m4c2cc3e2f6" x="81.17259" y="364.634968" style="stroke: #000000; stroke-width: 0.8"/>
      </g>
     </g>
    </g>
    <g id="xtick_9">
     <g id="line2d_16">
      <g>
       <use xlink:href="#m4c2cc3e2f6" x="173.755048" y="364.634968" style="stroke: #000000; stroke-width: 0.8"/>
      </g>
     </g>
    </g>
    <g id="xtick_10">
     <g id="line2d_17">
      <g>
       <use xlink:href="#m4c2cc3e2f6" x="266.337506" y="364.634968" style="stroke: #000000; stroke-width: 0.8"/>
      </g>
     </g>
    </g>
    <g id="xtick_11">
     <g id="line2d_18">
      <g>
       <use xlink:href="#m4c2cc3e2f6" x="358.919965" y="364.634968" style="stroke: #000000; stroke-width: 0.8"/>
      </g>
     </g>
    </g>
    <g id="xtick_12">
     <g id="line2d_19">
      <g>
       <use xlink:href="#m4c2cc3e2f6" x="451.502423" y="364.634968" style="stroke: #000000; stroke-width: 0.8"/>
      </g>
     </g>
    </g>
    <g id="xtick_13">
     <g id="line2d_20">
      <g>
       <use xlink:href="#m4c2cc3e2f6" x="544.084881" y="364.634968" style="stroke: #000000; stroke-width: 0.8"/>
      </g>
     </g>
    </g>
    <g id="xtick_14">
     <g id="line2d_21">
      <g>
       <use xlink:href="#m4c2cc3e2f6" x="636.667339" y="364.634968" style="stroke: #000000; stroke-width: 0.8"/>
      </g>
     </g>
    </g>
   </g>
   <g id="matplotlib.axis_4">
    <g id="ytick_7">
     <g id="line2d_22">
      <g>
       <use xlink:href="#m62fa60d3c7" x="54.323678" y="343.284678" style="stroke: #000000; stroke-width: 0.8"/>
      </g>
     </g>
     <g id="text_9">
      <!-- −0.50 -->
      <g transform="translate(16.678365 347.083897) scale(0.1 -0.1)">
       <defs>
        <path id="DejaVuSans-2212" d="M 678 2272 
L 4684 2272 
L 4684 1741 
L 678 1741 
L 678 2272 
z
" transform="scale(0.015625)"/>
       </defs>
       <use xlink:href="#DejaVuSans-2212"/>
       <use xlink:href="#DejaVuSans-30" transform="translate(83.789062 0)"/>
       <use xlink:href="#DejaVuSans-2e" transform="translate(147.412109 0)"/>
       <use xlink:href="#DejaVuSans-35" transform="translate(179.199219 0)"/>
       <use xlink:href="#DejaVuSans-30" transform="translate(242.822266 0)"/>
      </g>
     </g>
    </g>
    <g id="ytick_8">
     <g id="line2d_23">
      <g>
       <use xlink:href="#m62fa60d3c7" x="54.323678" y="320.034959" style="stroke: #000000; stroke-width: 0.8"/>
      </g>
     </g>
     <g id="text_10">
      <!-- −0.25 -->
      <g transform="translate(16.678365 323.834178) scale(0.1 -0.1)">
       <use xlink:href="#DejaVuSans-2212"/>
       <use xlink:href="#DejaVuSans-30" transform="translate(83.789062 0)"/>
       <use xlink:href="#DejaVuSans-2e" transform="translate(147.412109 0)"/>
       <use xlink:href="#DejaVuSans-32" transform="translate(179.199219 0)"/>
       <use xlink:href="#DejaVuSans-35" transform="translate(242.822266 0)"/>
      </g>
     </g>
    </g>
    <g id="ytick_9">
     <g id="line2d_24">
      <g>
       <use xlink:href="#m62fa60d3c7" x="54.323678" y="296.78524" style="stroke: #000000; stroke-width: 0.8"/>
      </g>
     </g>
     <g id="text_11">
      <!-- 0.00 -->
      <g transform="translate(25.058053 300.584459) scale(0.1 -0.1)">
       <use xlink:href="#DejaVuSans-30"/>
       <use xlink:href="#DejaVuSans-2e" transform="translate(63.623047 0)"/>
       <use xlink:href="#DejaVuSans-30" transform="translate(95.410156 0)"/>
       <use xlink:href="#DejaVuSans-30" transform="translate(159.033203 0)"/>
      </g>
     </g>
    </g>
    <g id="ytick_10">
     <g id="line2d_25">
      <g>
       <use xlink:href="#m62fa60d3c7" x="54.323678" y="273.535521" style="stroke: #000000; stroke-width: 0.8"/>
      </g>
     </g>
     <g id="text_12">
      <!-- 0.25 -->
      <g transform="translate(25.058053 277.33474) scale(0.1 -0.1)">
       <use xlink:href="#DejaVuSans-30"/>
       <use xlink:href="#DejaVuSans-2e" transform="translate(63.623047 0)"/>
       <use xlink:href="#DejaVuSans-32" transform="translate(95.410156 0)"/>
       <use xlink:href="#DejaVuSans-35" transform="translate(159.033203 0)"/>
      </g>
     </g>
    </g>
    <g id="ytick_11">
     <g id="line2d_26">
      <g>
       <use xlink:href="#m62fa60d3c7" x="54.323678" y="250.285802" style="stroke: #000000; stroke-width: 0.8"/>
      </g>
     </g>
     <g id="text_13">
      <!-- 0.50 -->
      <g transform="translate(25.058053 254.085021) scale(0.1 -0.1)">
       <use xlink:href="#DejaVuSans-30"/>
       <use xlink:href="#DejaVuSans-2e" transform="translate(63.623047 0)"/>
       <use xlink:href="#DejaVuSans-35" transform="translate(95.410156 0)"/>
       <use xlink:href="#DejaVuSans-30" transform="translate(159.033203 0)"/>
      </g>
     </g>
    </g>
    <g id="ytick_12">
     <g id="line2d_27">
      <g>
       <use xlink:href="#m62fa60d3c7" x="54.323678" y="227.036083" style="stroke: #000000; stroke-width: 0.8"/>
      </g>
     </g>
     <g id="text_14">
      <!-- 0.75 -->
      <g transform="translate(25.058053 230.835302) scale(0.1 -0.1)">
       <defs>
        <path id="DejaVuSans-37" d="M 525 4666 
L 3525 4666 
L 3525 4397 
L 1831 0 
L 1172 0 
L 2766 4134 
L 525 4134 
L 525 4666 
z
" transform="scale(0.015625)"/>
       </defs>
       <use xlink:href="#DejaVuSans-30"/>
       <use xlink:href="#DejaVuSans-2e" transform="translate(63.623047 0)"/>
       <use xlink:href="#DejaVuSans-37" transform="translate(95.410156 0)"/>
       <use xlink:href="#DejaVuSans-35" transform="translate(159.033203 0)"/>
      </g>
     </g>
    </g>
    <g id="ytick_13">
     <g id="line2d_28">
      <g>
       <use xlink:href="#m62fa60d3c7" x="54.323678" y="203.786364" style="stroke: #000000; stroke-width: 0.8"/>
      </g>
     </g>
     <g id="text_15">
      <!-- 1.00 -->
      <g transform="translate(25.058053 207.585583) scale(0.1 -0.1)">
       <use xlink:href="#DejaVuSans-31"/>
       <use xlink:href="#DejaVuSans-2e" transform="translate(63.623047 0)"/>
       <use xlink:href="#DejaVuSans-30" transform="translate(95.410156 0)"/>
       <use xlink:href="#DejaVuSans-30" transform="translate(159.033203 0)"/>
      </g>
     </g>
    </g>
    <g id="text_16">
     <!-- position -->
     <g transform="translate(10.598677 300.185625) rotate(-90) scale(0.1 -0.1)">
      <defs>
       <path id="DejaVuSans-70" d="M 1159 525 
L 1159 -1331 
L 581 -1331 
L 581 3500 
L 1159 3500 
L 1159 2969 
Q 1341 3281 1617 3432 
Q 1894 3584 2278 3584 
Q 2916 3584 3314 3078 
Q 3713 2572 3713 1747 
Q 3713 922 3314 415 
Q 2916 -91 2278 -91 
Q 1894 -91 1617 61 
Q 1341 213 1159 525 
z
M 3116 1747 
Q 3116 2381 2855 2742 
Q 2594 3103 2138 3103 
Q 1681 3103 1420 2742 
Q 1159 2381 1159 1747 
Q 1159 1113 1420 752 
Q 1681 391 2138 391 
Q 2594 391 2855 752 
Q 3116 1113 3116 1747 
z
" transform="scale(0.015625)"/>
      </defs>
      <use xlink:href="#DejaVuSans-70"/>
      <use xlink:href="#DejaVuSans-6f" transform="translate(63.476562 0)"/>
      <use xlink:href="#DejaVuSans-73" transform="translate(124.658203 0)"/>
      <use xlink:href="#DejaVuSans-69" transform="translate(176.757812 0)"/>
      <use xlink:href="#DejaVuSans-74" transform="translate(204.541016 0)"/>
      <use xlink:href="#DejaVuSans-69" transform="translate(243.75 0)"/>
      <use xlink:href="#DejaVuSans-6f" transform="translate(271.533203 0)"/>
      <use xlink:href="#DejaVuSans-6e" transform="translate(332.714844 0)"/>
     </g>
    </g>
   </g>
   <g id="line2d_29">
    <path d="M 81.17259 203.786364 
L 99.689082 205.686713 
L 118.205574 208.562235 
L 136.722065 212.347246 
L 155.238557 216.966697 
L 173.755048 222.337416 
L 192.27154 228.369417 
L 210.788032 234.967258 
L 229.304523 242.031445 
L 247.821015 249.459835 
L 266.337506 257.149051 
L 284.853998 264.995855 
L 303.37049 272.898499 
L 321.886981 280.758004 
L 340.403473 288.479373 
L 358.919965 295.97271 
L 377.436456 303.154248 
L 395.952948 309.947254 
L 414.469439 316.282821 
L 432.985931 322.100527 
L 451.502423 327.348963 
L 470.018914 331.98612 
L 488.535406 335.97964 
L 507.051897 339.306927 
L 525.568389 341.955116 
L 544.084881 343.92092 
L 562.601372 345.21034 
L 581.117864 345.838261 
L 599.634356 345.827935 
L 618.150847 345.210362 
" clip-path="url(#p350e155453)" style="fill: none; stroke: #111827; stroke-width: 2; stroke-linecap: square"/>
   </g>
   <g id="line2d_30">
    <path d="M 81.17259 206.561191 
L 99.689082 208.497892 
L 118.205574 211.178742 
L 136.722065 216.307665 
L 155.238557 217.758878 
L 173.755048 221.047342 
L 192.27154 225.910893 
L 210.788032 232.370221 
L 229.304523 240.361626 
L 247.821015 247.804314 
L 266.337506 255.975975 
L 284.853998 264.14429 
L 303.37049 274.615779 
L 321.886981 284.469031 
L 340.403473 291.232649 
L 358.919965 296.463357 
L 377.436456 301.888269 
L 395.952948 310.493871 
L 414.469439 315.999274 
L 432.985931 321.703693 
L 451.502423 326.990017 
L 470.018914 330.515291 
L 488.535406 335.323918 
L 507.051897 338.334883 
L 525.568389 345.068778 
L 544.084881 345.253146 
L 562.601372 344.60202 
L 581.117864 344.920968 
L 599.634356 345.896274 
L 618.150847 344.170795 
" clip-path="url(#p350e155453)" style="fill: none; stroke: #2563eb; stroke-width: 1.8; stroke-linecap: square"/>
   </g>
   <g id="line2d_31">
    <path d="M 81.17259 206.683044 
L 99.689082 208.494874 
L 118.205574 211.108568 
L 136.722065 214.501153 
L 155.238557 218.448874 
L 173.755048 223.363139 
L 192.27154 229.174031 
L 210.788032 235.776245 
L 229.304523 242.987433 
L 247.821015 250.546746 
L 266.337506 258.471528 
L 284.853998 266.580795 
L 303.37049 274.787895 
L 321.886981 282.515347 
L 340.403473 289.628771 
L 358.919965 296.547957 
L 377.436456 303.518667 
L 395.952948 310.471508 
L 414.469439 316.600186 
L 432.985931 322.365651 
L 451.502423 327.588298 
L 470.018914 332.194594 
L 488.535406 336.43369 
L 507.051897 339.877438 
L 525.568389 342.752898 
L 544.084881 343.976586 
L 562.601372 344.762645 
L 581.117864 345.245758 
L 599.634356 345.142416 
L 618.150847 344.170795 
" clip-path="url(#p350e155453)" style="fill: none; stroke: #dc2626; stroke-width: 1.8; stroke-linecap: square"/>
   </g>
   <g id="patch_8">
    <path d="M 54.323678 364.634968 
L 54.323678 196.126907 
" style="fill: none; stroke: #000000; stroke-width: 0.8; stroke-linejoin: miter; stroke-linecap: square"/>
   </g>
   <g id="patch_9">
    <path d="M 644.99976 364.634968 
L 644.99976 196.126907 
" style="fill: none; stroke: #000000; stroke-width: 0.8; stroke-linejoin: miter; stroke-linecap: square"/>
   </g>
   <g id="patch_10">
    <path d="M 54.323678 364.634968 
L 644.99976 364.634968 
" style="fill: none; stroke: #000000; stroke-width: 0.8; stroke-linejoin: miter; stroke-linecap: square"/>
   </g>
   <g id="patch_11">
    <path d="M 54.323678 196.126907 
L 644.99976 196.126907 
" style="fill: none; stroke: #000000; stroke-width: 0.8; stroke-linejoin: miter; stroke-linecap: square"/>
   </g>
   <g id="legend_1">
    <g id="patch_12">
     <path d="M 308.848354 216.537219 
L 638.69976 216.537219 
Q 640.49976 216.537219 640.49976 214.737219 
L 640.49976 202.426907 
Q 640.49976 200.626907 638.69976 200.626907 
L 308.848354 200.626907 
Q 307.048354 200.626907 307.048354 202.426907 
L 307.048354 214.737219 
Q 307.048354 216.537219 308.848354 216.537219 
z
" style="fill: #ffffff; opacity: 0.8; stroke: #cccccc; stroke-linejoin: miter"/>
    </g>
    <g id="line2d_32">
     <path d="M 310.648354 207.9155 
L 319.648354 207.9155 
L 328.648354 207.9155 
" style="fill: none; stroke: #111827; stroke-width: 2; stroke-linecap: square"/>
    </g>
    <g id="text_17">
     <!-- true q -->
     <g transform="translate(335.848354 211.0655) scale(0.09 -0.09)">
      <defs>
       <path id="DejaVuSans-71" d="M 947 1747 
Q 947 1113 1208 752 
Q 1469 391 1925 391 
Q 2381 391 2643 752 
Q 2906 1113 2906 1747 
Q 2906 2381 2643 2742 
Q 2381 3103 1925 3103 
Q 1469 3103 1208 2742 
Q 947 2381 947 1747 
z
M 2906 525 
Q 2725 213 2448 61 
Q 2172 -91 1784 -91 
Q 1150 -91 751 415 
Q 353 922 353 1747 
Q 353 2572 751 3078 
Q 1150 3584 1784 3584 
Q 2172 3584 2448 3432 
Q 2725 3281 2906 2969 
L 2906 3500 
L 3481 3500 
L 3481 -1331 
L 2906 -1331 
L 2906 525 
z
" transform="scale(0.015625)"/>
      </defs>
      <use xlink:href="#DejaVuSans-74"/>
      <use xlink:href="#DejaVuSans-72" transform="translate(39.208984 0)"/>
      <use xlink:href="#DejaVuSans-75" transform="translate(80.322266 0)"/>
      <use xlink:href="#DejaVuSans-65" transform="translate(143.701172 0)"/>
      <use xlink:href="#DejaVuSans-20" transform="translate(205.224609 0)"/>
      <use xlink:href="#DejaVuSans-71" transform="translate(237.011719 0)"/>
     </g>
    </g>
    <g id="PathCollection_2">
     <g>
      <use xlink:href="#mccbba96a9c" x="389.891948" y="208.703" style="fill: #d97706; fill-opacity: 0.65; stroke: #d97706; stroke-opacity: 0.65"/>
     </g>
    </g>
    <g id="text_18">
     <!-- measurements -->
     <g transform="translate(406.091948 211.0655) scale(0.09 -0.09)">
      <use xlink:href="#DejaVuSans-6d"/>
      <use xlink:href="#DejaVuSans-65" transform="translate(97.412109 0)"/>
      <use xlink:href="#DejaVuSans-61" transform="translate(158.935547 0)"/>
      <use xlink:href="#DejaVuSans-73" transform="translate(220.214844 0)"/>
      <use xlink:href="#DejaVuSans-75" transform="translate(272.314453 0)"/>
      <use xlink:href="#DejaVuSans-72" transform="translate(335.693359 0)"/>
      <use xlink:href="#DejaVuSans-65" transform="translate(374.556641 0)"/>
      <use xlink:href="#DejaVuSans-6d" transform="translate(436.080078 0)"/>
      <use xlink:href="#DejaVuSans-65" transform="translate(533.492188 0)"/>
      <use xlink:href="#DejaVuSans-6e" transform="translate(595.015625 0)"/>
      <use xlink:href="#DejaVuSans-74" transform="translate(658.394531 0)"/>
      <use xlink:href="#DejaVuSans-73" transform="translate(697.603516 0)"/>
     </g>
    </g>
    <g id="line2d_33">
     <path d="M 491.563823 207.9155 
L 500.563823 207.9155 
L 509.563823 207.9155 
" style="fill: none; stroke: #2563eb; stroke-width: 1.8; stroke-linecap: square"/>
    </g>
    <g id="text_19">
     <!-- filtered -->
     <g transform="translate(516.763823 211.0655) scale(0.09 -0.09)">
      <use xlink:href="#DejaVuSans-66"/>
      <use xlink:href="#DejaVuSans-69" transform="translate(35.205078 0)"/>
      <use xlink:href="#DejaVuSans-6c" transform="translate(62.988281 0)"/>
      <use xlink:href="#DejaVuSans-74" transform="translate(90.771484 0)"/>
      <use xlink:href="#DejaVuSans-65" transform="translate(129.980469 0)"/>
      <use xlink:href="#DejaVuSans-72" transform="translate(191.503906 0)"/>
      <use xlink:href="#DejaVuSans-65" transform="translate(230.367188 0)"/>
      <use xlink:href="#DejaVuSans-64" transform="translate(291.890625 0)"/>
     </g>
    </g>
    <g id="line2d_34">
     <path d="M 566.747573 207.9155 
L 575.747573 207.9155 
L 584.747573 207.9155 
" style="fill: none; stroke: #dc2626; stroke-width: 1.8; stroke-linecap: square"/>
    </g>
    <g id="text_20">
     <!-- smoothed -->
     <g transform="translate(591.947573 211.0655) scale(0.09 -0.09)">
      <defs>
       <path id="DejaVuSans-68" d="M 3513 2113 
L 3513 0 
L 2938 0 
L 2938 2094 
Q 2938 2591 2744 2837 
Q 2550 3084 2163 3084 
Q 1697 3084 1428 2787 
Q 1159 2491 1159 1978 
L 1159 0 
L 581 0 
L 581 4863 
L 1159 4863 
L 1159 2956 
Q 1366 3272 1645 3428 
Q 1925 3584 2291 3584 
Q 2894 3584 3203 3211 
Q 3513 2838 3513 2113 
z
" transform="scale(0.015625)"/>
      </defs>
      <use xlink:href="#DejaVuSans-73"/>
      <use xlink:href="#DejaVuSans-6d" transform="translate(52.099609 0)"/>
      <use xlink:href="#DejaVuSans-6f" transform="translate(149.511719 0)"/>
      <use xlink:href="#DejaVuSans-6f" transform="translate(210.693359 0)"/>
      <use xlink:href="#DejaVuSans-74" transform="translate(271.875 0)"/>
      <use xlink:href="#DejaVuSans-68" transform="translate(311.083984 0)"/>
      <use xlink:href="#DejaVuSans-65" transform="translate(374.462891 0)"/>
      <use xlink:href="#DejaVuSans-64" transform="translate(435.986328 0)"/>
     </g>
    </g>
   </g>
  </g>
  <g id="axes_3">
   <g id="patch_13">
    <path d="M 54.323678 542.64351 
L 644.99976 542.64351 
L 644.99976 374.135448 
L 54.323678 374.135448 
z
" style="fill: #ffffff"/>
   </g>
   <g id="matplotlib.axis_5">
    <g id="xtick_15">
     <g id="line2d_35">
      <g>
       <use xlink:href="#m4c2cc3e2f6" x="81.17259" y="542.64351" style="stroke: #000000; stroke-width: 0.8"/>
      </g>
     </g>
     <g id="text_21">
      <!-- 0.0 -->
      <g transform="translate(73.221028 557.241948) scale(0.1 -0.1)">
       <use xlink:href="#DejaVuSans-30"/>
       <use xlink:href="#DejaVuSans-2e" transform="translate(63.623047 0)"/>
       <use xlink:href="#DejaVuSans-30" transform="translate(95.410156 0)"/>
      </g>
     </g>
    </g>
    <g id="xtick_16">
     <g id="line2d_36">
      <g>
       <use xlink:href="#m4c2cc3e2f6" x="173.755048" y="542.64351" style="stroke: #000000; stroke-width: 0.8"/>
      </g>
     </g>
     <g id="text_22">
      <!-- 0.5 -->
      <g transform="translate(165.803486 557.241948) scale(0.1 -0.1)">
       <use xlink:href="#DejaVuSans-30"/>
       <use xlink:href="#DejaVuSans-2e" transform="translate(63.623047 0)"/>
       <use xlink:href="#DejaVuSans-35" transform="translate(95.410156 0)"/>
      </g>
     </g>
    </g>
    <g id="xtick_17">
     <g id="line2d_37">
      <g>
       <use xlink:href="#m4c2cc3e2f6" x="266.337506" y="542.64351" style="stroke: #000000; stroke-width: 0.8"/>
      </g>
     </g>
     <g id="text_23">
      <!-- 1.0 -->
      <g transform="translate(258.385944 557.241948) scale(0.1 -0.1)">
       <use xlink:href="#DejaVuSans-31"/>
       <use xlink:href="#DejaVuSans-2e" transform="translate(63.623047 0)"/>
       <use xlink:href="#DejaVuSans-30" transform="translate(95.410156 0)"/>
      </g>
     </g>
    </g>
    <g id="xtick_18">
     <g id="line2d_38">
      <g>
       <use xlink:href="#m4c2cc3e2f6" x="358.919965" y="542.64351" style="stroke: #000000; stroke-width: 0.8"/>
      </g>
     </g>
     <g id="text_24">
      <!-- 1.5 -->
      <g transform="translate(350.968402 557.241948) scale(0.1 -0.1)">
       <use xlink:href="#DejaVuSans-31"/>
       <use xlink:href="#DejaVuSans-2e" transform="translate(63.623047 0)"/>
       <use xlink:href="#DejaVuSans-35" transform="translate(95.410156 0)"/>
      </g>
     </g>
    </g>
    <g id="xtick_19">
     <g id="line2d_39">
      <g>
       <use xlink:href="#m4c2cc3e2f6" x="451.502423" y="542.64351" style="stroke: #000000; stroke-width: 0.8"/>
      </g>
     </g>
     <g id="text_25">
      <!-- 2.0 -->
      <g transform="translate(443.55086 557.241948) scale(0.1 -0.1)">
       <use xlink:href="#DejaVuSans-32"/>
       <use xlink:href="#DejaVuSans-2e" transform="translate(63.623047 0)"/>
       <use xlink:href="#DejaVuSans-30" transform="translate(95.410156 0)"/>
      </g>
     </g>
    </g>
    <g id="xtick_20">
     <g id="line2d_40">
      <g>
       <use xlink:href="#m4c2cc3e2f6" x="544.084881" y="542.64351" style="stroke: #000000; stroke-width: 0.8"/>
      </g>
     </g>
     <g id="text_26">
      <!-- 2.5 -->
      <g transform="translate(536.133318 557.241948) scale(0.1 -0.1)">
       <use xlink:href="#DejaVuSans-32"/>
       <use xlink:href="#DejaVuSans-2e" transform="translate(63.623047 0)"/>
       <use xlink:href="#DejaVuSans-35" transform="translate(95.410156 0)"/>
      </g>
     </g>
    </g>
    <g id="xtick_21">
     <g id="line2d_41">
      <g>
       <use xlink:href="#m4c2cc3e2f6" x="636.667339" y="542.64351" style="stroke: #000000; stroke-width: 0.8"/>
      </g>
     </g>
     <g id="text_27">
      <!-- 3.0 -->
      <g transform="translate(628.715776 557.241948) scale(0.1 -0.1)">
       <defs>
        <path id="DejaVuSans-33" d="M 2597 2516 
Q 3050 2419 3304 2112 
Q 3559 1806 3559 1356 
Q 3559 666 3084 287 
Q 2609 -91 1734 -91 
Q 1441 -91 1130 -33 
Q 819 25 488 141 
L 488 750 
Q 750 597 1062 519 
Q 1375 441 1716 441 
Q 2309 441 2620 675 
Q 2931 909 2931 1356 
Q 2931 1769 2642 2001 
Q 2353 2234 1838 2234 
L 1294 2234 
L 1294 2753 
L 1863 2753 
Q 2328 2753 2575 2939 
Q 2822 3125 2822 3475 
Q 2822 3834 2567 4026 
Q 2313 4219 1838 4219 
Q 1578 4219 1281 4162 
Q 984 4106 628 3988 
L 628 4550 
Q 988 4650 1302 4700 
Q 1616 4750 1894 4750 
Q 2613 4750 3031 4423 
Q 3450 4097 3450 3541 
Q 3450 3153 3228 2886 
Q 3006 2619 2597 2516 
z
" transform="scale(0.015625)"/>
       </defs>
       <use xlink:href="#DejaVuSans-33"/>
       <use xlink:href="#DejaVuSans-2e" transform="translate(63.623047 0)"/>
       <use xlink:href="#DejaVuSans-30" transform="translate(95.410156 0)"/>
      </g>
     </g>
    </g>
    <g id="text_28">
     <!-- time [s] -->
     <g transform="translate(330.270312 570.920072) scale(0.1 -0.1)">
      <defs>
       <path id="DejaVuSans-5b" d="M 550 4863 
L 1875 4863 
L 1875 4416 
L 1125 4416 
L 1125 -397 
L 1875 -397 
L 1875 -844 
L 550 -844 
L 550 4863 
z
" transform="scale(0.015625)"/>
       <path id="DejaVuSans-5d" d="M 1947 4863 
L 1947 -844 
L 622 -844 
L 622 -397 
L 1369 -397 
L 1369 4416 
L 622 4416 
L 622 4863 
L 1947 4863 
z
" transform="scale(0.015625)"/>
      </defs>
      <use xlink:href="#DejaVuSans-74"/>
      <use xlink:href="#DejaVuSans-69" transform="translate(39.208984 0)"/>
      <use xlink:href="#DejaVuSans-6d" transform="translate(66.992188 0)"/>
      <use xlink:href="#DejaVuSans-65" transform="translate(164.404297 0)"/>
      <use xlink:href="#DejaVuSans-20" transform="translate(225.927734 0)"/>
      <use xlink:href="#DejaVuSans-5b" transform="translate(257.714844 0)"/>
      <use xlink:href="#DejaVuSans-73" transform="translate(296.728516 0)"/>
      <use xlink:href="#DejaVuSans-5d" transform="translate(348.828125 0)"/>
     </g>
    </g>
   </g>
   <g id="matplotlib.axis_6">
    <g id="ytick_14">
     <g id="line2d_42">
      <g>
       <use xlink:href="#m62fa60d3c7" x="54.323678" y="527.799457" style="stroke: #000000; stroke-width: 0.8"/>
      </g>
     </g>
     <g id="text_29">
      <!-- −0.8 -->
      <g transform="translate(23.040865 531.598676) scale(0.1 -0.1)">
       <defs>
        <path id="DejaVuSans-38" d="M 2034 2216 
Q 1584 2216 1326 1975 
Q 1069 1734 1069 1313 
Q 1069 891 1326 650 
Q 1584 409 2034 409 
Q 2484 409 2743 651 
Q 3003 894 3003 1313 
Q 3003 1734 2745 1975 
Q 2488 2216 2034 2216 
z
M 1403 2484 
Q 997 2584 770 2862 
Q 544 3141 544 3541 
Q 544 4100 942 4425 
Q 1341 4750 2034 4750 
Q 2731 4750 3128 4425 
Q 3525 4100 3525 3541 
Q 3525 3141 3298 2862 
Q 3072 2584 2669 2484 
Q 3125 2378 3379 2068 
Q 3634 1759 3634 1313 
Q 3634 634 3220 271 
Q 2806 -91 2034 -91 
Q 1263 -91 848 271 
Q 434 634 434 1313 
Q 434 1759 690 2068 
Q 947 2378 1403 2484 
z
M 1172 3481 
Q 1172 3119 1398 2916 
Q 1625 2713 2034 2713 
Q 2441 2713 2670 2916 
Q 2900 3119 2900 3481 
Q 2900 3844 2670 4047 
Q 2441 4250 2034 4250 
Q 1625 4250 1398 4047 
Q 1172 3844 1172 3481 
z
" transform="scale(0.015625)"/>
       </defs>
       <use xlink:href="#DejaVuSans-2212"/>
       <use xlink:href="#DejaVuSans-30" transform="translate(83.789062 0)"/>
       <use xlink:href="#DejaVuSans-2e" transform="translate(147.412109 0)"/>
       <use xlink:href="#DejaVuSans-38" transform="translate(179.199219 0)"/>
      </g>
     </g>
    </g>
    <g id="ytick_15">
     <g id="line2d_43">
      <g>
       <use xlink:href="#m62fa60d3c7" x="54.323678" y="498.598547" style="stroke: #000000; stroke-width: 0.8"/>
      </g>
     </g>
     <g id="text_30">
      <!-- −0.6 -->
      <g transform="translate(23.040865 502.397765) scale(0.1 -0.1)">
       <defs>
        <path id="DejaVuSans-36" d="M 2113 2584 
Q 1688 2584 1439 2293 
Q 1191 2003 1191 1497 
Q 1191 994 1439 701 
Q 1688 409 2113 409 
Q 2538 409 2786 701 
Q 3034 994 3034 1497 
Q 3034 2003 2786 2293 
Q 2538 2584 2113 2584 
z
M 3366 4563 
L 3366 3988 
Q 3128 4100 2886 4159 
Q 2644 4219 2406 4219 
Q 1781 4219 1451 3797 
Q 1122 3375 1075 2522 
Q 1259 2794 1537 2939 
Q 1816 3084 2150 3084 
Q 2853 3084 3261 2657 
Q 3669 2231 3669 1497 
Q 3669 778 3244 343 
Q 2819 -91 2113 -91 
Q 1303 -91 875 529 
Q 447 1150 447 2328 
Q 447 3434 972 4092 
Q 1497 4750 2381 4750 
Q 2619 4750 2861 4703 
Q 3103 4656 3366 4563 
z
" transform="scale(0.015625)"/>
       </defs>
       <use xlink:href="#DejaVuSans-2212"/>
       <use xlink:href="#DejaVuSans-30" transform="translate(83.789062 0)"/>
       <use xlink:href="#DejaVuSans-2e" transform="translate(147.412109 0)"/>
       <use xlink:href="#DejaVuSans-36" transform="translate(179.199219 0)"/>
      </g>
     </g>
    </g>
    <g id="ytick_16">
     <g id="line2d_44">
      <g>
       <use xlink:href="#m62fa60d3c7" x="54.323678" y="469.397636" style="stroke: #000000; stroke-width: 0.8"/>
      </g>
     </g>
     <g id="text_31">
      <!-- −0.4 -->
      <g transform="translate(23.040865 473.196855) scale(0.1 -0.1)">
       <defs>
        <path id="DejaVuSans-34" d="M 2419 4116 
L 825 1625 
L 2419 1625 
L 2419 4116 
z
M 2253 4666 
L 3047 4666 
L 3047 1625 
L 3713 1625 
L 3713 1100 
L 3047 1100 
L 3047 0 
L 2419 0 
L 2419 1100 
L 313 1100 
L 313 1709 
L 2253 4666 
z
" transform="scale(0.015625)"/>
       </defs>
       <use xlink:href="#DejaVuSans-2212"/>
       <use xlink:href="#DejaVuSans-30" transform="translate(83.789062 0)"/>
       <use xlink:href="#DejaVuSans-2e" transform="translate(147.412109 0)"/>
       <use xlink:href="#DejaVuSans-34" transform="translate(179.199219 0)"/>
      </g>
     </g>
    </g>
    <g id="ytick_17">
     <g id="line2d_45">
      <g>
       <use xlink:href="#m62fa60d3c7" x="54.323678" y="440.196726" style="stroke: #000000; stroke-width: 0.8"/>
      </g>
     </g>
     <g id="text_32">
      <!-- −0.2 -->
      <g transform="translate(23.040865 443.995945) scale(0.1 -0.1)">
       <use xlink:href="#DejaVuSans-2212"/>
       <use xlink:href="#DejaVuSans-30" transform="translate(83.789062 0)"/>
       <use xlink:href="#DejaVuSans-2e" transform="translate(147.412109 0)"/>
       <use xlink:href="#DejaVuSans-32" transform="translate(179.199219 0)"/>
      </g>
     </g>
    </g>
    <g id="ytick_18">
     <g id="line2d_46">
      <g>
       <use xlink:href="#m62fa60d3c7" x="54.323678" y="410.995816" style="stroke: #000000; stroke-width: 0.8"/>
      </g>
     </g>
     <g id="text_33">
      <!-- 0.0 -->
      <g transform="translate(31.420552 414.795035) scale(0.1 -0.1)">
       <use xlink:href="#DejaVuSans-30"/>
       <use xlink:href="#DejaVuSans-2e" transform="translate(63.623047 0)"/>
       <use xlink:href="#DejaVuSans-30" transform="translate(95.410156 0)"/>
      </g>
     </g>
    </g>
    <g id="ytick_19">
     <g id="line2d_47">
      <g>
       <use xlink:href="#m62fa60d3c7" x="54.323678" y="381.794906" style="stroke: #000000; stroke-width: 0.8"/>
      </g>
     </g>
     <g id="text_34">
      <!-- 0.2 -->
      <g transform="translate(31.420552 385.594124) scale(0.1 -0.1)">
       <use xlink:href="#DejaVuSans-30"/>
       <use xlink:href="#DejaVuSans-2e" transform="translate(63.623047 0)"/>
       <use xlink:href="#DejaVuSans-32" transform="translate(95.410156 0)"/>
      </g>
     </g>
    </g>
    <g id="text_35">
     <!-- momentum -->
     <g transform="translate(16.961177 487.43401) rotate(-90) scale(0.1 -0.1)">
      <use xlink:href="#DejaVuSans-6d"/>
      <use xlink:href="#DejaVuSans-6f" transform="translate(97.412109 0)"/>
      <use xlink:href="#DejaVuSans-6d" transform="translate(158.59375 0)"/>
      <use xlink:href="#DejaVuSans-65" transform="translate(256.005859 0)"/>
      <use xlink:href="#DejaVuSans-6e" transform="translate(317.529297 0)"/>
      <use xlink:href="#DejaVuSans-74" transform="translate(380.908203 0)"/>
      <use xlink:href="#DejaVuSans-75" transform="translate(420.117188 0)"/>
      <use xlink:href="#DejaVuSans-6d" transform="translate(483.496094 0)"/>
     </g>
    </g>
   </g>
   <g id="line2d_48">
    <path d="M 81.17259 432.896499 
L 99.689082 448.668088 
L 118.205574 463.487773 
L 136.722065 477.199316 
L 155.238557 489.665245 
L 173.755048 500.768133 
L 192.27154 510.411582 
L 210.788032 518.520905 
L 229.304523 525.043509 
L 247.821015 529.948966 
L 266.337506 533.228795 
L 284.853998 534.895951 
L 303.37049 534.984053 
L 321.886981 533.546338 
L 340.403473 530.654399 
L 358.919965 526.396696 
L 377.436456 520.876884 
L 395.952948 514.211978 
L 414.469439 506.530395 
L 432.985931 497.969875 
L 451.502423 488.675353 
L 470.018914 478.79677 
L 488.535406 468.486887 
L 507.051897 457.899116 
L 525.568389 447.185394 
L 544.084881 436.494145 
L 562.601372 425.968336 
L 581.117864 415.743669 
L 599.634356 405.946916 
L 618.150847 396.694431 
" clip-path="url(#pc7dc086d90)" style="fill: none; stroke: #111827; stroke-width: 2; stroke-linecap: square"/>
   </g>
   <g id="line2d_49">
    <path d="M 81.17259 381.794906 
L 99.689082 411.695238 
L 118.205574 438.940619 
L 136.722065 467.4546 
L 155.238557 468.6645 
L 173.755048 477.401273 
L 192.27154 488.624306 
L 210.788032 500.648299 
L 229.304523 512.321326 
L 247.821015 519.263704 
L 266.337506 524.888649 
L 284.853998 528.117949 
L 303.37049 532.227211 
L 321.886981 532.96476 
L 340.403473 528.474998 
L 358.919965 521.768463 
L 377.436456 514.973149 
L 395.952948 510.44982 
L 414.469439 502.280932 
L 432.985931 493.972361 
L 451.502423 485.03953 
L 470.018914 474.676978 
L 488.535406 465.459199 
L 507.051897 454.966273 
L 525.568389 447.352624 
L 544.084881 434.898268 
L 562.601372 422.946441 
L 581.117864 412.815304 
L 599.634356 404.010071 
L 618.150847 394.140436 
" clip-path="url(#pc7dc086d90)" style="fill: none; stroke: #2563eb; stroke-width: 1.8; stroke-linecap: square"/>
   </g>
   <g id="line2d_50">
    <path d="M 81.17259 431.536 
L 99.689082 446.876003 
L 118.205574 461.311801 
L 136.722065 474.736161 
L 155.238557 487.076719 
L 173.755048 498.23187 
L 192.27154 508.0261 
L 210.788032 516.305046 
L 229.304523 522.952303 
L 247.821015 527.914541 
L 266.337506 531.170692 
L 284.853998 532.709932 
L 303.37049 532.553498 
L 321.886981 530.814235 
L 340.403473 527.71891 
L 358.919965 523.437429 
L 377.436456 518.00746 
L 395.952948 511.418314 
L 414.469439 503.787253 
L 432.985931 495.297268 
L 451.502423 486.060221 
L 470.018914 476.222349 
L 488.535406 465.893832 
L 507.051897 455.19642 
L 525.568389 444.288245 
L 544.084881 433.449118 
L 562.601372 422.965122 
L 581.117864 412.86857 
L 599.634356 403.21064 
L 618.150847 394.140436 
" clip-path="url(#pc7dc086d90)" style="fill: none; stroke: #dc2626; stroke-width: 1.8; stroke-linecap: square"/>
   </g>
   <g id="patch_14">
    <path d="M 54.323678 542.64351 
L 54.323678 374.135448 
" style="fill: none; stroke: #000000; stroke-width: 0.8; stroke-linejoin: miter; stroke-linecap: square"/>
   </g>
   <g id="patch_15">
    <path d="M 644.99976 542.64351 
L 644.99976 374.135448 
" style="fill: none; stroke: #000000; stroke-width: 0.8; stroke-linejoin: miter; stroke-linecap: square"/>
   </g>
   <g id="patch_16">
    <path d="M 54.323678 542.64351 
L 644.99976 542.64351 
" style="fill: none; stroke: #000000; stroke-width: 0.8; stroke-linejoin: miter; stroke-linecap: square"/>
   </g>
   <g id="patch_17">
    <path d="M 54.323678 374.135448 
L 644.99976 374.135448 
" style="fill: none; stroke: #000000; stroke-width: 0.8; stroke-linejoin: miter; stroke-linecap: square"/>
   </g>
  </g>
 </g>
 <defs>
  <clipPath id="p2f2f826fff">
   <rect x="54.323678" y="18.118365" width="590.676083" height="168.508062"/>
  </clipPath>
  <clipPath id="p350e155453">
   <rect x="54.323678" y="196.126907" width="590.676083" height="168.508062"/>
  </clipPath>
  <clipPath id="pc7dc086d90">
   <rect x="54.323678" y="374.135448" width="590.676083" height="168.508062"/>
  </clipPath>
 </defs>
</svg>
